<svg width="62" height="66" viewBox="0 0 62 66" fill="none" xmlns="http://www.w3.org/2000/svg">
<g clip-path="url(#clip0_79_944)">
<path d="M57.4801 54.5041C58.6494 54.5041 59.7204 54.4986 60.7931 54.5059C61.7331 54.5114 61.9918 54.7827 61.9952 55.7515C61.9987 57.0917 62.0038 58.432 61.9952 59.7722C61.9711 63.3905 59.5031 65.9964 56.0831 65.9982C48.21 66.0036 40.3352 66 32.4621 66C26.869 66 21.2759 66.0018 15.6828 66C12.1955 65.9982 9.7051 63.3814 9.7051 59.6921C9.69992 44.383 9.70337 29.0739 9.70337 13.7649C9.70337 13.4735 9.70337 13.1822 9.70337 12.8325C9.42915 12.818 9.20149 12.7979 8.97384 12.7979C6.41443 12.7961 3.85331 12.7979 1.2939 12.7961C0.257379 12.7943 0.0107516 12.5284 0.0107516 11.4194C0.00902698 9.69314 0.040071 7.96684 0.00385298 6.24054C-0.0651336 2.99554 2.40114 0.00729128 5.94705 0.00547029C21.1362 -0.00363466 36.3236 7.31993e-06 51.511 0.0036493C54.574 0.0036493 56.8799 1.99035 57.399 5.08057C57.4852 5.59045 57.4766 6.12036 57.4766 6.64116C57.4801 22.2689 57.4801 37.8948 57.4801 53.5226C57.4801 53.8158 57.4801 54.1071 57.4801 54.5041ZM9.85514 1.87563C11.3711 3.57279 11.5263 5.49212 11.5194 7.51342C11.485 17.2594 11.4987 27.0053 11.497 36.7512C11.4953 44.4759 11.4867 52.1987 11.5039 59.9234C11.5091 62.2342 13.3183 64.0861 15.4689 64.0698C17.6386 64.0515 19.3736 62.2032 19.3874 59.8869C19.396 58.4793 19.3839 57.0699 19.3908 55.6622C19.396 54.8592 19.7237 54.5041 20.4791 54.4567C20.6722 54.444 20.8671 54.4531 21.0603 54.4531C32.3137 54.4531 43.5655 54.4531 54.8189 54.4531C55.0897 54.4531 55.3622 54.4531 55.6916 54.4531C55.6916 54.1381 55.6916 53.9159 55.6916 53.6937C55.6916 37.9495 55.6916 22.207 55.6881 6.4627C55.6881 6.0111 55.6795 5.54675 55.5829 5.10971C55.1259 3.0447 53.5702 1.87563 51.3075 1.87563C37.774 1.87381 24.2406 1.87381 10.7071 1.87381C10.4846 1.87563 10.2604 1.87563 9.85514 1.87563ZM19.6995 64.108C20.0341 64.108 20.2273 64.108 20.4187 64.108C32.2447 64.108 44.0725 64.108 55.8985 64.108C56.1141 64.108 56.328 64.108 56.5436 64.0952C58.332 63.9951 59.9722 62.4946 60.1429 60.6135C60.2671 59.2441 60.1671 57.8529 60.1671 56.4689C47.1855 56.4689 34.2195 56.4689 21.1914 56.4689C21.1914 57.8474 21.2155 59.1403 21.1845 60.4296C21.1517 61.7953 20.567 62.9426 19.6995 64.108ZM1.84925 10.8586C4.47246 10.8586 7.07498 10.8586 9.7051 10.8586C9.7051 9.17052 9.73442 7.53709 9.6982 5.9073C9.65163 3.84776 8.04424 2.09961 6.11607 1.943C4.05337 1.77547 2.09415 3.23227 1.88719 5.3519C1.70955 7.16196 1.84925 9.00663 1.84925 10.8586Z" fill="black"/>
<path d="M40.2605 45.9819C39.8346 46.8323 39.4844 47.6408 39.0326 48.3783C38.8394 48.6933 38.4203 49.0539 38.1202 49.0393C37.8184 49.0247 37.4028 48.6296 37.2648 48.2963C36.0731 45.4338 34.9331 42.5457 33.7724 39.6521C33.3567 39.6521 32.9566 39.6521 32.4944 39.6521C32.0115 40.843 31.513 42.0686 31.0198 43.2959C30.3644 44.9239 29.709 46.5518 29.0571 48.1816C28.876 48.635 28.676 49.0666 28.131 49.0921C27.586 49.1176 27.3462 48.7152 27.1341 48.2727C26.8426 47.6663 26.5115 47.0781 26.2459 46.4608C26.0786 46.0729 25.8855 45.9782 25.506 46.1257C24.8817 46.3697 24.2384 46.5555 23.6089 46.7849C23.176 46.9434 22.7586 47.0089 22.412 46.6192C22.0412 46.204 22.1688 45.7451 22.3551 45.2862C23.4451 42.5966 24.5299 39.9052 25.6181 37.2138C25.9907 36.2924 25.4871 34.9813 24.6075 34.5916C24.2125 34.4168 23.809 34.2601 23.4175 34.0762C22.3982 33.601 21.9101 32.6631 22.0653 31.4977C22.1153 31.1171 22.1636 30.7347 22.2171 30.3541C22.293 29.8188 22.2568 29.3307 21.8601 28.9137C21.6186 28.6588 21.4306 28.3474 21.222 28.0579C20.4424 26.9725 20.3596 25.8818 21.2409 24.9039C22.1774 23.8641 22.3516 22.7715 22.0791 21.4404C21.8446 20.295 22.3654 19.2388 23.4209 18.8892C24.7317 18.4539 25.5405 17.6855 25.9493 16.2633C26.2942 15.0651 27.2738 14.4787 28.4535 14.7956C29.7746 15.1525 30.7335 14.7755 31.701 13.8614C32.6117 13.0019 33.6499 12.9983 34.5674 13.8559C35.535 14.761 36.4853 15.1543 37.8115 14.7974C39.0309 14.4696 40.0053 15.0942 40.3761 16.3817C40.7503 17.68 41.4644 18.3884 42.663 18.8163C44.0514 19.3116 44.4584 20.2822 44.1255 22.1178C43.9617 23.0228 44.0496 23.753 44.6878 24.4031C44.9171 24.6362 45.0965 24.9312 45.2655 25.2189C45.7467 26.0475 45.7381 26.8888 45.2672 27.7246C45.2017 27.8412 45.1379 27.9686 45.0448 28.056C44.0583 28.9847 43.9134 30.1119 44.1738 31.434C44.4222 32.6941 43.891 33.5846 42.7872 34.0981C42.5906 34.1891 42.3991 34.313 42.1939 34.3512C41.1487 34.5515 40.7279 35.3527 40.5089 36.316C40.4503 36.571 40.5123 36.8951 40.6124 37.1464C41.6799 39.8215 42.7648 42.4892 43.8461 45.157C43.8961 45.2826 43.9979 45.4101 43.9893 45.5321C43.9634 45.8963 44.01 46.3679 43.8134 46.5883C43.6219 46.805 43.1407 46.8869 42.8372 46.8104C41.9818 46.6046 41.1539 46.2805 40.2605 45.9819ZM42.3698 21.3785C42.3871 20.7757 42.406 20.6956 41.7955 20.5299C40.1571 20.0856 39.1688 19.0112 38.7618 17.3013C38.7566 17.2794 38.748 17.2576 38.7428 17.2357C38.61 16.7659 38.3651 16.6202 37.8736 16.7313C36.5215 17.0372 35.2435 17.0864 34.0914 15.9446C33.0756 14.9394 33.2274 14.9959 32.1425 15.9428C31.3233 16.6584 30.4748 17.1246 29.3814 16.9006C29.1089 16.8442 28.8139 16.866 28.557 16.7677C27.8636 16.5018 27.567 16.8679 27.4049 17.4997C27.0324 18.9584 26.2425 19.9453 24.8041 20.3897C23.7296 20.7229 23.7486 20.8303 23.959 22.0122C23.9711 22.0795 23.9918 22.1433 24.0021 22.2106C24.1453 23.1685 24.1608 24.0717 23.5278 24.9112C22.3585 26.459 22.3809 26.4845 23.5261 28.0542C23.9331 28.6133 24.1884 29.2178 24.1056 29.9371C24.0556 30.3632 23.9901 30.7893 23.9142 31.2118C23.7969 31.8655 23.8883 32.3354 24.6196 32.5193C26.1045 32.8908 27.0513 33.8741 27.4101 35.4584C27.4239 35.5239 27.4739 35.5785 27.4877 35.6441C27.617 36.2414 27.9551 36.3761 28.4949 36.2232C29.9057 35.828 31.2181 35.9355 32.2857 37.1501C32.3857 37.263 32.5461 37.3176 32.6479 37.4305C32.9859 37.8111 33.2877 37.771 33.6344 37.4214C34.7295 36.3124 35.9627 35.686 37.5373 36.154C38.41 36.4144 38.5152 36.5455 38.8843 35.2981C39.312 33.8522 40.1346 32.9108 41.542 32.5593C41.6454 32.5338 41.7369 32.4628 41.8403 32.4337C42.2957 32.308 42.4664 32.0094 42.3681 31.525C42.3284 31.3265 42.3112 31.1226 42.2784 30.9223C42.1197 29.9025 42.0387 28.9301 42.7389 28.0269C43.9168 26.5082 43.8944 26.4791 42.7648 24.9403C42.2819 24.2811 42.0163 23.5891 42.2025 22.7351C42.306 22.278 42.3215 21.7973 42.3698 21.3785ZM24.6437 44.4358C25.2008 44.2556 25.6095 44.1299 26.0131 43.9897C26.5926 43.7876 27.0151 43.9587 27.2962 44.5378C27.5066 44.9712 27.7343 45.3955 28.0137 45.9418C29.0381 43.3997 30.0143 40.976 31.0353 38.4448C30.6248 38.2627 30.2627 37.964 29.9091 37.975C29.0019 37.9986 28.0965 38.1589 27.1376 38.2718C26.3459 40.2221 25.5233 42.2598 24.6437 44.4358ZM41.6041 44.4286C40.721 42.2452 39.888 40.1911 39.0929 38.2244C38.4221 38.168 37.8305 38.1188 37.2389 38.0678C36.537 38.0077 35.7764 37.7018 35.2987 38.6232C36.261 41.0142 37.232 43.4252 38.2461 45.9436C38.5324 45.3809 38.7584 44.9475 38.9739 44.5069C39.2464 43.9533 39.6621 43.7967 40.214 43.9788C40.6365 44.1172 41.0608 44.2519 41.6041 44.4286Z" fill="black"/>
<path d="M29.0762 31.4831C29.2263 30.5672 29.4039 29.6548 29.5108 28.7334C29.5419 28.4694 29.4401 28.1088 29.2728 27.914C28.7227 27.2784 28.0811 26.7303 27.5465 26.0802C27.3222 25.8089 27.1049 25.299 27.2032 25.0259C27.3171 24.7108 27.7517 24.4359 28.1001 24.3212C28.6261 24.1482 29.1987 24.0553 29.7506 24.0608C30.6715 24.0699 31.201 23.6474 31.4977 22.7405C31.6925 22.1451 31.9944 21.5842 32.2876 21.0324C32.7118 20.233 33.5552 20.2294 33.9708 21.0324C34.3813 21.8282 34.7245 22.6622 35.1384 23.4562C35.2402 23.6529 35.4851 23.8459 35.6903 23.8878C36.5113 24.0571 37.3564 24.1117 38.1669 24.3193C38.5136 24.4086 38.9499 24.7054 39.0638 25.0204C39.1621 25.2954 38.9465 25.8071 38.7223 26.0784C38.1876 26.7267 37.5426 27.2712 36.9907 27.9067C36.82 28.1015 36.7113 28.4621 36.7406 28.7261C36.8338 29.5802 37.0511 30.4215 37.1235 31.2755C37.1528 31.6306 37.0321 32.1478 36.7958 32.3353C36.563 32.5211 36.0525 32.4974 35.7455 32.3627C34.9953 32.0312 34.3054 31.5505 33.5621 31.2009C33.3189 31.0861 32.9447 31.088 32.7015 31.2045C31.9202 31.576 31.182 32.0513 30.4077 32.441C29.6902 32.7979 29.0279 32.3026 29.0762 31.4831ZM31.082 29.8661C31.8892 29.5001 32.5152 28.9956 33.1413 28.9956C33.7656 28.9956 34.3899 29.5001 35.1833 29.8606C34.4779 28.1817 34.9091 26.9234 36.3595 26.0019C35.523 25.7998 34.7331 25.8217 34.2295 25.4301C33.7139 25.0295 33.4793 24.2265 33.1257 23.6037C32.7722 24.2319 32.548 25.0295 32.0427 25.4192C31.527 25.8162 30.7336 25.8107 29.8713 26.0311C31.4425 26.927 31.7253 28.2181 31.082 29.8661Z" fill="black"/>
</g>
<defs>
<clipPath id="clip0_79_944">
<rect width="62" height="66" fill="white"/>
</clipPath>
</defs>
</svg>
