<svg width="62" height="53" viewBox="0 0 62 53" fill="none" xmlns="http://www.w3.org/2000/svg">
<g clip-path="url(#clip0_79_929)">
<path d="M55.4223 48.6499C53.6577 48.6499 51.8948 48.655 50.1302 48.6483C49.1469 48.6449 48.8297 48.3196 48.8097 47.327C48.6344 38.6015 42.424 31.265 33.9799 29.8083C24.1001 28.1041 14.6544 35.1357 13.3472 45.1757C13.2504 45.9244 13.2304 46.685 13.192 47.4422C13.1502 48.2807 12.828 48.6432 12.0066 48.6449C8.39563 48.655 4.78628 48.655 1.17526 48.6449C0.327182 48.6432 -0.0150556 48.2705 -0.00169997 47.3829C0.113492 39.7754 2.55423 33.0318 7.42568 27.247C12.1586 21.6265 18.1269 18.0421 25.3088 16.7429C34.8681 15.0151 43.4841 17.2934 50.9516 23.5983C56.7829 28.5226 60.3038 34.8799 61.5726 42.4738C61.8447 44.1051 61.8948 45.7787 61.9966 47.4354C62.0467 48.2637 61.6577 48.6381 60.8397 48.6449C59.0334 48.6584 57.2287 48.6499 55.4223 48.6499ZM17.3756 21.6638C18.9198 24.3758 20.4357 27.0404 21.9749 29.7405C24.5309 28.4226 27.1953 27.7298 29.9566 27.5502C29.9566 24.4012 29.9566 21.3419 29.9566 18.2437C25.4858 18.4063 21.3372 19.5464 17.3756 21.6638ZM40.035 29.7388C41.5826 27.0166 43.0985 24.3538 44.631 21.6587C40.6427 19.5396 36.4958 18.3945 32.0367 18.2471C32.0367 21.369 32.0367 24.4317 32.0367 27.5553C34.818 27.7264 37.4657 28.4192 40.035 29.7388ZM47.6511 36.7195C50.3138 35.1594 52.9432 33.6179 55.5693 32.0798C53.9816 28.9918 49.3539 24.3013 46.3439 22.714C44.8264 25.3803 43.3072 28.0499 41.7696 30.7552C44.1486 32.3475 46.0818 34.3158 47.6511 36.7195ZM15.6594 22.709C12.4925 24.4605 7.84638 29.1832 6.44571 32.0832C9.07176 33.6213 11.7011 35.1611 14.3589 36.7195C15.9232 34.304 17.8698 32.3475 20.2337 30.7535C18.7028 28.0601 17.1936 25.4057 15.6594 22.709ZM5.39897 33.8144C3.30381 37.8206 2.19029 42.0487 2.02334 46.5647C5.12184 46.5647 8.1569 46.5647 11.2087 46.5647C11.3773 43.6952 12.0935 41.0187 13.3522 38.4728C10.6744 36.9059 8.05673 35.3728 5.39897 33.8144ZM56.6093 33.8161C53.9265 35.3898 51.2971 36.9296 48.6477 38.4829C49.9499 41.0713 50.6193 43.7612 50.8046 46.5579C53.9048 46.5579 56.9382 46.5579 59.9866 46.5579C59.803 42.0368 58.6978 37.8308 56.6093 33.8161Z" fill="black"/>
<path d="M50.3756 8.33583C50.9849 7.78191 51.5676 7.24493 52.1569 6.71811C52.8981 6.05748 53.7495 5.94398 54.5008 6.39457C55.2554 6.84685 55.5609 7.64639 55.3555 8.63565C55.227 9.25225 55.1135 9.87392 54.9565 10.482C54.8614 10.853 54.9549 11.0563 55.2938 11.2325C55.8647 11.5289 56.414 11.8711 56.9632 12.2065C57.7645 12.6943 58.1418 13.4583 57.9933 14.2561C57.8313 15.1285 57.1769 15.7367 56.2236 15.8603C55.5659 15.9467 54.9048 16.0094 54.2437 16.0568C53.8964 16.0805 53.7362 16.233 53.6761 16.5802C53.5625 17.2426 53.424 17.8998 53.2754 18.5554C53.0701 19.4684 52.424 20.0698 51.5776 20.1629C50.7846 20.251 50.0333 19.7953 49.6443 18.9636C49.3605 18.3572 49.0834 17.7457 48.8347 17.1223C48.6994 16.7818 48.5459 16.6395 48.1469 16.7073C47.454 16.8242 46.7479 16.8801 46.0433 16.919C45.1569 16.9681 44.4707 16.5277 44.1552 15.7638C43.8347 14.9896 44.0016 14.2087 44.651 13.5803C45.1452 13.1009 45.6527 12.6334 46.1752 12.1862C46.4373 11.9609 46.5024 11.7627 46.3405 11.434C46.035 10.8141 45.7662 10.1754 45.5041 9.53514C45.1535 8.67292 45.3272 7.86152 45.9565 7.28897C46.5876 6.71642 47.3973 6.62833 48.207 7.07723C48.9332 7.47869 49.641 7.90726 50.3756 8.33583ZM51.3639 17.888C51.5375 17.0732 51.6694 16.4413 51.8046 15.8095C52.035 14.744 52.5976 14.2257 53.6694 14.0969C54.3088 14.0207 54.9465 13.9445 55.7612 13.8479C55.0968 13.4549 54.5993 13.1602 54.1018 12.8654C52.9766 12.1997 52.6928 11.5374 52.9699 10.2381C53.0901 9.67573 53.2003 9.11165 53.3155 8.54757C52.7929 8.86434 52.3806 9.2387 51.9682 9.61645C50.9398 10.5549 50.2637 10.6243 49.055 9.91458C48.5809 9.63508 48.1051 9.35727 47.459 8.97783C47.7579 9.67065 47.9766 10.1822 48.1986 10.6938C48.7846 12.0388 48.6544 12.6435 47.5659 13.6412C47.1569 14.0156 46.7495 14.39 46.2136 14.8829C46.9716 14.8016 47.5442 14.7491 48.1135 14.6762C49.3572 14.5153 50.0283 14.8863 50.5442 16.0365C50.7963 16.6006 51.045 17.1663 51.3639 17.888Z" fill="black"/>
<path d="M11.631 8.33755C12.3588 7.91406 13.035 7.50752 13.7228 7.1196C14.5809 6.63514 15.3772 6.69442 16.03 7.27375C16.6927 7.86324 16.8463 8.68819 16.4557 9.63002C16.2303 10.1721 16.0316 10.7328 15.7445 11.2393C15.464 11.7322 15.5976 12.0253 15.9949 12.3454C16.4657 12.7232 16.9031 13.1449 17.3388 13.5667C18.0049 14.2121 18.1752 15.0235 17.8296 15.8044C17.4941 16.5633 16.8196 16.9749 15.9164 16.919C15.2136 16.8767 14.5108 16.8089 13.8129 16.7056C13.4857 16.6582 13.3238 16.7395 13.1986 17.0478C12.9398 17.6898 12.6577 18.3216 12.3672 18.9484C11.9799 19.7835 11.2353 20.2443 10.444 20.1663C9.57754 20.0799 8.93147 19.465 8.71945 18.513C8.58756 17.9185 8.42562 17.3273 8.35551 16.7242C8.29708 16.2161 8.05 16.0585 7.59257 16.0348C7.03497 16.0077 6.47738 15.9332 5.92145 15.879C4.9131 15.7807 4.23698 15.2302 4.0283 14.3375C3.83297 13.5007 4.21527 12.7045 5.07671 12.1845C5.6293 11.8508 6.18022 11.5154 6.74783 11.2122C7.06335 11.0445 7.13848 10.8446 7.05167 10.5024C6.89307 9.87226 6.76786 9.23195 6.63764 8.59503C6.44566 7.64642 6.75618 6.85196 7.48406 6.40476C8.23197 5.9457 9.0934 6.05073 9.82963 6.70459C10.424 7.22971 11.0049 7.76838 11.631 8.33755ZM10.5942 17.6813C10.6343 17.6949 10.6744 17.7067 10.7128 17.7203C10.9649 17.1511 11.2136 16.582 11.4674 16.0162C11.9682 14.8982 12.651 14.5187 13.848 14.6678C14.4323 14.7406 15.0183 14.7965 15.7929 14.8812C15.2002 14.3392 14.7428 13.9225 14.2887 13.5024C13.3956 12.674 13.2503 11.9744 13.7328 10.8514C13.9765 10.2856 14.2286 9.7215 14.4774 9.15741C13.823 9.40812 13.2737 9.73505 12.7178 10.0501C11.7912 10.5752 11.0049 10.4872 10.2103 9.77231C9.73447 9.34544 9.26202 8.91349 8.64599 8.35279C8.80459 9.11845 8.91978 9.68762 9.04165 10.2568C9.31377 11.5408 9.02162 12.2065 7.88973 12.8756C7.39057 13.1704 6.89641 13.4719 6.27037 13.8496C7.08673 13.9479 7.72279 14.0241 8.36052 14.1003C9.39057 14.224 9.96987 14.7491 10.1952 15.7723C10.3338 16.4075 10.4607 17.0461 10.5942 17.6813Z" fill="black"/>
<path d="M26.9365 3.77578C28.4173 3.77578 28.4156 3.77409 28.8781 2.32577C28.9983 1.94633 29.1068 1.56011 29.257 1.19252C29.5776 0.415006 30.1836 -9.85817e-06 30.9999 -0.0017038C31.818 -0.00339774 32.4357 0.409924 32.7428 1.19083C32.9882 1.8142 33.2003 2.45451 33.3639 3.10498C33.4924 3.61147 33.7094 3.83677 34.257 3.78595C34.853 3.73005 35.459 3.76393 36.06 3.77578C36.9699 3.79442 37.6694 4.28735 37.9331 5.07334C38.2069 5.89321 37.9398 6.72154 37.1902 7.30087C36.6627 7.70911 36.1335 8.11735 35.5792 8.48494C35.2553 8.70007 35.2053 8.90673 35.3422 9.26415C35.5592 9.82993 35.7195 10.4194 35.9014 11.0004C36.222 12.0304 36.0166 12.8316 35.3004 13.3753C34.5809 13.9208 33.7211 13.87 32.8346 13.2246C32.3288 12.857 31.843 12.4589 31.3171 12.1269C31.1602 12.0287 30.843 12.0287 30.6861 12.1269C30.1585 12.4589 29.6727 12.857 29.1685 13.2246C28.2804 13.8717 27.4256 13.9208 26.7028 13.3753C25.9849 12.8316 25.7812 12.0337 26.1018 11.0021C26.2821 10.4211 26.4423 9.83331 26.661 9.26584C26.7979 8.90842 26.7495 8.70176 26.4256 8.48663C25.853 8.10719 25.3054 7.68878 24.7645 7.2653C24.055 6.70969 23.8046 5.87966 24.0717 5.07673C24.3271 4.31107 25.0149 3.81136 25.8797 3.77578C26.2303 3.76393 26.5842 3.77578 26.9365 3.77578ZM28.0968 11.3646C28.1368 11.3816 28.1752 11.3985 28.2153 11.4171C28.7011 11.0597 29.1852 10.704 29.6727 10.3483C30.6493 9.63343 31.3505 9.63512 32.3438 10.355C32.838 10.7125 33.3288 11.075 33.9699 11.5442C33.7478 10.8412 33.5859 10.3246 33.4206 9.8096C32.9632 8.37991 33.1569 7.78195 34.3622 6.88924C34.7979 6.5674 35.227 6.23877 35.6594 5.91354C35.1001 5.79835 34.6043 5.79835 34.1084 5.79835C32.4423 5.79835 32.0316 5.49005 31.5124 3.86217C31.3655 3.40142 31.2069 2.94406 31.0533 2.485C30.7412 3.08127 30.5575 3.65551 30.3705 4.22976C29.9999 5.36301 29.4256 5.79157 28.2587 5.79665C27.6326 5.80004 27.0049 5.79665 26.3772 5.79665C26.868 6.31669 27.3872 6.69444 27.8998 7.08235C28.7645 7.73622 28.9916 8.45953 28.6694 9.51824C28.4824 10.1331 28.2887 10.7497 28.0968 11.3646Z" fill="black"/>
<path d="M33.9799 43.1886C35.7579 41.3846 37.5158 39.5992 39.2754 37.8155C39.4373 37.6528 39.5926 37.4767 39.7779 37.3462C40.2103 37.0413 40.651 37.0752 41.025 37.4394C41.4223 37.8256 41.454 38.2898 41.1418 38.7522C41.0267 38.9233 40.8647 39.0639 40.7195 39.213C39.1068 40.851 37.4941 42.489 35.8747 44.1203C35.7145 44.2812 35.5058 44.393 35.3539 44.5014C37.2453 47.7877 35.8781 50.7843 33.9649 52.0869C31.8246 53.5454 28.9231 53.2269 27.1502 51.3094C25.3622 49.3766 25.237 46.3834 26.858 44.31C28.4524 42.2739 31.3973 41.5523 33.9799 43.1886ZM31.02 44.31C29.1936 44.3032 27.7345 45.7719 27.7262 47.6234C27.7178 49.4681 29.1769 50.9723 30.9849 50.9842C32.7879 50.9977 34.2704 49.502 34.2804 47.6589C34.2888 45.8092 32.8363 44.3168 31.02 44.31Z" fill="black"/>
</g>
<defs>
<clipPath id="clip0_79_929">
<rect width="62" height="53" fill="white"/>
</clipPath>
</defs>
</svg>
