<svg width="109" height="109" viewBox="0 0 109 109" fill="none" xmlns="http://www.w3.org/2000/svg">
<circle cx="54.5" cy="54.5" r="54.5" fill="url(#paint0_linear_0_1)"/>
<g clip-path="url(#clip0_0_1)">
<path d="M39.047 54.6954C39.3493 52.603 39.6735 50.5128 39.9452 48.416C40.0328 47.7481 40.2606 47.24 40.7951 46.8162C41.8532 45.9797 42.8697 45.0855 43.7613 44.3333C43.2947 42.7623 42.655 41.3334 42.4666 39.8445C41.8708 35.1449 42.9026 30.8869 46.4318 27.5431C48.7101 25.3841 51.5229 24.6963 54.5482 25.1822C56.0948 25.4307 57.5648 25.4485 59.1092 25.18C61.2648 24.805 63.4336 25.0535 65.5586 25.5794C66.253 25.7502 66.5619 26.2983 66.4042 26.9506C66.2618 27.5475 65.6966 27.8582 64.9868 27.694C62.6515 27.157 60.3141 26.9972 57.9591 27.5963C53.5296 28.7235 50.1384 32.8151 49.7747 37.4281C49.6017 39.6315 49.8602 41.7017 51.2052 43.5389C51.6105 44.0914 51.4944 44.7216 51.0125 45.0855C50.4955 45.4782 49.8996 45.3806 49.4461 44.7881C48.2785 43.2638 47.6914 41.5064 47.595 39.6026C47.3409 34.568 49.2358 30.5164 53.133 27.2347C52.5963 27.2768 52.0487 27.2679 51.5229 27.37C48.5983 27.9358 46.7165 29.7997 45.5489 32.4623C44.3703 35.1516 44.0373 37.9585 44.8676 40.8053C45.1349 41.7261 45.6497 42.5937 46.1623 43.4169C46.6749 44.2423 46.6837 44.7282 45.9235 45.3717C44.815 46.3125 43.6868 47.2289 42.5937 48.1874C42.3505 48.4004 42.1008 48.7288 42.0548 49.035C41.5137 52.6496 41.0011 56.2708 40.5104 59.892C40.4512 60.3269 40.4994 60.8017 40.6046 61.23C41.1785 63.5265 41.8007 65.8097 42.3768 68.1062C42.5915 68.9583 42.6747 69.8458 42.907 70.6912C43.3626 72.3509 44.2893 73.6889 45.7066 74.6785C47.698 76.0675 49.6696 77.4854 51.6543 78.8833C53.282 80.0282 55.201 80.0526 56.8331 78.9143C58.8858 77.4832 60.9187 76.0209 62.9582 74.5698C64.507 73.467 65.3439 71.9027 65.7842 70.0788C66.4874 67.1676 67.1227 64.2365 67.9377 61.3564C68.4327 59.6035 68.1326 57.8994 68.0275 56.1754C67.8851 53.8833 67.6507 51.5978 67.4995 49.3057C67.4623 48.7533 67.2936 48.3694 66.862 48.0255C66.0186 47.3554 65.2103 46.6409 64.3997 45.9286C63.8126 45.4139 63.7206 44.7682 64.1303 44.2734C64.5596 43.7564 65.1643 43.7297 65.782 44.2467C66.8576 45.1476 67.942 46.0418 68.9651 47.0026C69.2586 47.2777 69.4777 47.7503 69.5281 48.1586C69.6902 49.4855 69.7559 50.8235 69.8655 52.157C69.883 52.3722 69.9399 52.583 70.0122 52.9735C71.4208 49.1926 71.4931 45.6224 69.734 42.1477C69.3638 41.4177 68.6825 40.8186 68.0581 40.2616C67.4141 39.6869 67.1928 39.1633 67.574 38.5908C67.9508 38.0228 68.5642 37.9562 69.2805 38.4355C71.3573 39.8245 72.2862 41.9347 72.8272 44.2778C73.5611 47.4463 73.0704 50.5084 72.2029 53.5926C70.7987 58.5851 69.539 63.6175 68.2356 68.6388C68.0275 69.4398 67.9618 70.2807 67.7514 71.0817C67.1687 73.305 66.0033 75.1534 64.0864 76.4314C63.4862 76.8308 63.3788 77.2258 63.5059 77.9269C63.9638 80.4298 64.3734 82.946 64.7086 85.4689C64.8094 86.2233 65.1161 86.5273 65.782 86.758C73.4582 89.4162 81.1255 92.1011 88.7951 94.7793C89.0295 94.8614 89.2771 94.9324 89.4808 95.0677C89.9277 95.365 90.1533 95.8487 89.8839 96.3036C89.6889 96.632 89.2595 96.8916 88.8805 97.0114C88.6177 97.0935 88.2584 96.9072 87.9561 96.8029C81.3928 94.513 74.8295 92.2187 68.2684 89.9244C68.0362 89.8423 67.7975 89.7846 67.4995 89.6958C67.4009 90.1263 67.3221 90.5168 67.2235 90.9007C66.0383 95.5093 63.1423 98.3805 58.5835 99.4633C55.2208 100.262 51.8493 100.198 48.5545 99.0816C44.3791 97.666 41.7919 94.6972 40.587 90.4458C40.5191 90.2084 40.4556 89.9687 40.3658 89.6448C38.8411 90.1751 37.3645 90.6854 35.8924 91.2002C30.5033 93.0818 25.1165 94.9634 19.7296 96.8428C19.5653 96.9005 19.401 96.9648 19.2323 97.0048C18.5817 97.1534 18.0187 96.8605 17.8478 96.2947C17.6725 95.7201 17.9486 95.1653 18.597 94.9279C20.0253 94.4065 21.4646 93.9183 22.8995 93.4169C29.3445 91.1647 35.7873 88.9059 42.2366 86.6715C42.7229 86.5029 42.9552 86.2832 43.0384 85.7529C43.4875 82.8883 43.9848 80.0326 44.4361 77.1703C44.4777 76.8996 44.4098 76.4647 44.2301 76.3271C42.0548 74.6652 41.0033 72.4064 40.4643 69.7526C39.8882 66.9191 39.0952 64.1278 38.3744 61.3254C37.4281 57.642 36.3656 53.9876 35.5309 50.2798C34.9548 47.7193 35.4302 45.1587 36.186 42.6691C36.9067 40.2971 38.0677 38.1626 39.6954 36.3098C39.9561 36.0147 40.5125 35.8527 40.92 35.8727C41.1807 35.8838 41.6188 36.3409 41.6232 36.6027C41.6298 37.0287 41.4348 37.5324 41.1654 37.8719C39.6122 39.8334 38.4993 42.0057 37.9407 44.4575C37.4303 46.6986 37.2638 48.933 37.9648 51.1785C38.3241 52.3278 38.5869 53.5083 38.8936 54.6732C38.9418 54.6843 38.9944 54.6887 39.047 54.6954ZM46.5742 77.9691C46.4909 78.2731 46.4142 78.4839 46.3792 78.7013C45.9169 81.4838 45.446 84.264 45.0122 87.0509C44.9027 87.7543 44.6069 88.207 43.9125 88.4022C43.4393 88.5354 42.9858 88.7373 42.4732 88.9281C43.1852 92.4539 44.9552 95.1121 48.2018 96.5899C51.1855 97.9478 54.3357 98.0743 57.5013 97.473C61.3525 96.743 63.9835 94.5396 65.0613 90.6277C65.5191 88.9702 65.5148 88.9503 63.8893 88.4067C63.2518 88.1936 62.8991 87.8408 62.7983 87.1419C62.5464 85.3712 62.2397 83.6095 61.9527 81.8455C61.7731 80.7382 61.5913 79.6288 61.3853 78.3752C60.3185 79.1318 59.3677 79.8041 58.4192 80.4786C55.672 82.4357 52.868 82.429 50.1033 80.4653C48.9445 79.6443 47.7834 78.8256 46.5742 77.9691Z" fill="black"/>
<path d="M66.1411 30.8205C62.4936 30.6807 59.6282 32.0187 57.6654 35.0674C55.8515 37.8854 55.1417 40.9674 55.9172 44.309C56.007 44.6973 56.1998 45.0612 56.3334 45.4406C56.5613 46.093 56.3553 46.681 55.8274 46.9295C55.2512 47.2002 54.5875 46.9961 54.3684 46.2993C53.9872 45.0834 53.5403 43.8342 53.4812 42.5805C53.3015 38.8062 54.3925 35.3803 56.868 32.518C59.9481 28.9589 63.911 28.0425 68.3449 28.9611C69.8193 29.2673 71.2344 29.8775 72.6693 30.3679C73.3068 30.5853 73.5872 31.0668 73.4295 31.7303C73.2718 32.3915 72.7635 32.549 72.1545 32.5002C70.3735 32.3582 68.6209 32.4558 66.9188 33.0704C62.6273 34.6259 60.3511 39.0037 61.5232 43.4548C61.5429 43.528 61.5757 43.5968 61.5933 43.67C61.7488 44.4022 61.4837 44.9702 60.9076 45.15C60.2942 45.3408 59.7334 45.008 59.5143 44.2469C58.5438 40.8565 59.0564 37.7012 61.0828 34.8278C62.2088 33.2302 63.7073 32.0786 65.4795 31.2909C65.6613 31.211 65.8454 31.1334 66.0228 31.0468C66.0579 31.0335 66.0666 30.9692 66.1411 30.8205Z" fill="black"/>
<path d="M26.1416 25.8262C26.8864 25.8661 27.2172 26.2833 27.3268 26.9245C27.4735 27.7943 27.5765 28.6708 27.7539 29.5339C28.2184 31.806 29.7825 33.3126 32.0345 33.7076C32.7706 33.8363 33.5023 33.9761 34.2383 34.1092C34.832 34.2179 35.1979 34.5752 35.1979 35.1831C35.1979 35.8244 34.8298 36.1905 34.1902 36.2859C33.4037 36.4057 32.6194 36.5544 31.8352 36.6853C29.5218 37.0692 27.9314 38.6379 27.4932 40.97C27.3487 41.7377 27.1953 42.5032 27.0529 43.2709C26.9368 43.8944 26.606 44.2827 25.951 44.2805C25.2807 44.2783 24.9762 43.8345 24.871 43.2354C24.7089 42.319 24.6278 41.3827 24.4219 40.4774C23.9422 38.3583 22.6168 37.047 20.5356 36.5455C19.7382 36.3525 18.9233 36.2282 18.1171 36.0729C17.4665 35.9487 16.9714 35.6424 17.0021 34.8903C17.0306 34.1891 17.4818 33.9051 18.1325 33.8208C18.9474 33.7165 19.758 33.5856 20.5641 33.4302C22.7307 33.0109 24.2686 31.451 24.6848 29.2743C24.8403 28.4578 24.9915 27.6412 25.1405 26.8224C25.25 26.2256 25.6093 25.9083 26.1416 25.8262ZM26.1504 32.0878C25.1755 33.0464 24.1196 34.0826 23.1557 35.03C24.0911 36.013 25.1295 37.1002 26.0452 38.0632C27.0244 37.1025 28.0869 36.064 29.0442 35.1277C28.1176 34.1536 27.0814 33.0641 26.1504 32.0878Z" fill="black"/>
<path d="M54.41 67.9106C56.4035 67.9106 58.3949 67.8973 60.3884 67.9173C61.3348 67.9261 61.7466 68.3588 61.6108 69.2952C61.2121 72.0133 60.0598 74.3032 57.4332 75.3926C54.7759 76.4932 52.1449 76.3024 49.8271 74.4252C48.2126 73.1183 47.4524 71.2855 47.1589 69.2552C47.0318 68.3743 47.4787 67.9217 48.436 67.9128C50.4252 67.8995 52.4165 67.9106 54.41 67.9106ZM59.1222 70.1517C55.9347 70.1517 52.7977 70.1517 49.6453 70.1517C50.1667 72.4526 52.1449 73.9126 54.5393 73.8372C56.9162 73.7618 58.8242 72.2418 59.1222 70.1517Z" fill="black"/>
<path d="M63.8191 39.5207C63.8541 36.3278 65.7885 34.0179 68.9256 33.4765C71.6157 33.0128 74.2774 34.7346 75.2347 37.5548C75.5107 38.3713 75.3245 38.9815 74.7265 39.2234C74.0759 39.4874 73.5282 39.159 73.2018 38.3114C72.3014 35.9661 70.2049 34.9987 68.1238 35.9683C66.6933 36.634 65.8455 38.1761 66.0185 39.8092C66.058 40.1842 66.1368 40.5591 66.1456 40.9364C66.1609 41.5488 65.8696 41.9526 65.2452 42.028C64.6428 42.1035 64.2047 41.8372 64.0666 41.2359C63.9396 40.6745 63.898 40.0932 63.8191 39.5207Z" fill="black"/>
<path d="M60.9426 63.8616C59.81 63.8682 58.9491 63.0007 58.9601 61.8624C58.9688 60.7596 59.8122 59.9142 60.9098 59.9053C62.0336 59.8965 62.923 60.7862 62.9077 61.9045C62.8923 62.9962 62.0292 63.8549 60.9426 63.8616Z" fill="black"/>
<path d="M47.711 63.8594C46.5784 63.8483 45.7525 62.9785 45.7766 61.8224C45.8007 60.713 46.642 59.8965 47.7548 59.9053C48.8874 59.9142 49.7155 60.7885 49.687 61.9423C49.6585 63.0561 48.8217 63.8705 47.711 63.8594Z" fill="black"/>
<path d="M84.3502 48.5203C84.3524 49.4211 84.0391 49.9914 83.4126 49.9936C83.0664 49.9958 82.4662 49.7717 82.418 49.5498C82.2822 48.9263 82.2822 48.2318 82.4202 47.6083C82.4706 47.382 83.0577 47.1468 83.4016 47.1446C84.0303 47.1401 84.3502 47.6837 84.3502 48.5203Z" fill="black"/>
<path d="M79.982 52.9053C78.8713 52.8942 78.2491 52.1598 78.6369 51.3188C78.9085 50.7352 79.8045 50.469 80.6282 50.753C81.1978 50.9482 81.4563 51.3676 81.3796 51.98C81.2986 52.6057 80.8276 52.9142 79.982 52.9053Z" fill="black"/>
<path d="M84.223 55.073C84.2142 56.0626 83.901 56.584 83.246 56.533C82.8845 56.5041 82.2952 56.2312 82.247 55.9805C82.1287 55.3792 82.1725 54.6958 82.3565 54.1122C82.4288 53.8837 83.0817 53.6906 83.4322 53.7417C84.177 53.8548 84.269 54.4916 84.223 55.073Z" fill="black"/>
<path d="M86.4773 50.8187C87.4039 50.8298 87.8705 51.1937 87.8683 51.9038C87.8683 52.596 87.3995 52.9777 86.5495 52.9821C85.5024 52.9866 85.0029 52.6338 85.0029 51.8904C85.0051 51.156 85.4871 50.8054 86.4773 50.8187Z" fill="black"/>
<path d="M83.1299 38.802C82.5012 38.8197 81.925 38.2606 81.9053 37.6127C81.8856 36.9603 82.4157 36.4101 83.0795 36.3967C83.7499 36.3834 84.2888 36.896 84.3019 37.5594C84.3129 38.2051 83.7674 38.7842 83.1299 38.802Z" fill="black"/>
</g>
<defs>
<linearGradient id="paint0_linear_0_1" x1="54.5" y1="109" x2="54.5" y2="6.49906e-07" gradientUnits="userSpaceOnUse">
<stop stop-color="#E0E0E0"/>
<stop offset="0.481667" stop-color="#D1D1D1"/>
<stop offset="1" stop-color="#AEAEAE"/>
</linearGradient>
<clipPath id="clip0_0_1">
<rect width="73" height="75" fill="white" transform="translate(17 25)"/>
</clipPath>
</defs>
</svg>
