<svg width="109" height="109" viewBox="0 0 109 109" fill="none" xmlns="http://www.w3.org/2000/svg">
<circle cx="54.5" cy="54.5" r="54.5" fill="url(#paint0_linear_0_1)"/>
<g clip-path="url(#clip0_0_1)">
<path d="M74.6982 34.5912C74.6982 34.9143 74.7128 35.2399 74.6957 35.563C74.6201 36.8916 74.6055 38.0249 75.7933 39.1678C76.6298 39.9708 76.9152 41.5574 77.0274 42.8281C77.2932 45.8133 76.642 48.7068 75.2835 51.3785C74.8031 52.3237 73.9055 53.0567 73.2275 53.9079C73.0226 54.1635 72.8421 54.4745 72.769 54.7856C72.1031 57.6839 71.4763 60.5895 70.8032 63.4854C70.6666 64.0786 70.5032 64.7272 70.1446 65.1974C69.3227 66.2777 69.6861 67.194 70.2593 68.2043C72.9372 72.9231 76.9518 76.2145 81.7565 78.5848C83.7004 79.5445 85.7905 80.2919 87.8929 80.8417C91.227 81.7146 94.261 83.1614 97.178 84.9192C97.8048 85.2977 98.2561 85.7679 97.8292 86.4913C97.3902 87.2292 96.761 87.0363 96.1366 86.6529C93.5708 85.0807 90.9148 83.7135 87.9661 82.9492C86.4198 82.5489 84.8223 82.192 83.4053 81.5C80.8639 80.263 78.2737 79.0092 76.0128 77.3478C73.8226 75.7395 71.4763 74.8304 68.8813 74.3626C61.9376 73.116 54.928 73.1811 47.9282 73.5428C44.7405 73.7068 41.5674 74.2565 38.4114 74.7726C36.6017 75.0691 34.9822 75.8673 33.4944 77.0319C29.8336 79.8941 25.7215 81.9027 21.1436 82.9419C18.3705 83.5713 15.8754 84.8565 13.4535 86.2888C13.1731 86.4551 12.895 86.6263 12.6145 86.7903C12.0414 87.1231 11.5121 87.0555 11.1707 86.4913C10.8341 85.9295 11.0073 85.3942 11.5756 85.0807C13.2877 84.1379 14.9828 83.1469 16.7583 82.3367C18.0534 81.7435 19.4461 81.3264 20.8338 80.9671C27.3727 79.2792 32.8847 76.0047 37.0578 70.6999C37.9333 69.5883 38.5675 68.2863 39.2675 67.0469C39.4016 66.8082 39.4431 66.391 39.3211 66.1619C37.626 62.914 37.087 59.3549 36.4431 55.8248C36.2675 54.8676 36.1651 53.9826 35.1578 53.416C34.6627 53.1363 34.2969 52.5262 34.0188 51.9885C32.3335 48.743 31.5701 45.3117 32.1067 41.6659C32.3091 40.2939 32.8457 39.0738 34.0457 38.1913C34.3066 37.9984 34.3774 37.41 34.3603 37.0121C34.1725 32.6357 34.5847 28.3485 36.2139 24.2349C39.9894 14.6983 49.2233 11.5444 55.7743 12.0387C65.0862 12.7428 72.1153 18.959 73.9372 28.0326C74.3689 30.1834 74.547 32.3825 74.8421 34.5599C74.7957 34.5792 74.747 34.584 74.6982 34.5912ZM53.4402 14.1341C53.1256 14.1341 52.8646 14.1003 52.6134 14.1389C46.0843 15.1154 41.1235 18.2477 38.3846 24.3651C36.6505 28.2376 36.2919 32.3415 36.3846 36.5178C36.4066 37.5137 36.4992 38.3335 37.448 39.0111C38.1577 39.5174 38.7626 40.3252 39.1187 41.1282C40.0113 43.1295 40.8942 45.1598 41.4918 47.2576C42.3405 50.2476 43.1283 53.2255 44.5819 56.0177C45.2892 57.3753 45.6404 58.9281 46.0624 60.4159C46.3575 61.4551 46.4965 62.5378 46.6941 63.5409C49.0282 63.4034 51.2379 63.2732 53.4427 63.143C53.4402 46.7681 53.4402 30.468 53.4402 14.1341ZM62.3083 63.5361C62.3497 63.3528 62.401 63.1696 62.4302 62.9839C62.8522 60.2905 63.5278 57.6815 64.7399 55.2027C65.5033 53.6402 66.1106 51.9933 66.6569 50.3416C67.1545 48.8394 67.4106 47.2624 67.8862 45.753C68.7642 42.9583 69.7934 40.2336 72.2641 38.3408C72.4519 38.1985 72.547 37.844 72.5592 37.5836C72.6909 34.5695 72.6324 31.5651 71.9861 28.6017C70.7519 22.9545 67.8569 18.5129 62.4741 15.9184C60.3181 14.8791 58.0401 14.245 55.5743 14.0931C55.5743 30.4969 55.5743 46.8188 55.5743 63.1623C57.8157 63.2877 59.9961 63.4083 62.3083 63.5361ZM70.6568 72.6C69.8959 71.3944 68.8935 70.2514 68.4057 68.9228C67.7374 67.1096 66.4862 66.3814 64.7326 66.1306C64.5399 66.1041 64.3497 66.0438 64.1594 66.0052C59.4693 65.0552 54.7207 65.0407 49.9891 65.3831C47.4038 65.5712 44.8527 66.2343 42.2942 66.7189C41.9771 66.7792 41.5869 67.0035 41.4333 67.2687C40.3991 69.0482 39.4187 70.8567 38.4797 72.5542C49.1013 70.8977 59.8913 70.9145 70.6568 72.6ZM44.8771 63.8109C44.1722 61.4576 43.7478 59.0608 42.7478 56.9316C41.3308 53.9151 40.3065 50.8166 39.5309 47.6048C38.9821 45.3358 38.2504 43.1126 36.787 41.2319C36.3773 40.7062 35.7383 40.3542 35.2042 39.9225C34.8456 40.5519 34.2676 41.1451 34.1652 41.813C33.6408 45.2177 34.3017 48.4367 36.07 51.4098C36.2553 51.7209 36.6017 52.0922 36.9212 52.1404C37.8431 52.2803 38.0455 52.8686 38.1724 53.6258C38.4919 55.5379 38.7724 57.4621 39.2114 59.3477C39.6528 61.2478 40.265 63.1093 40.7991 64.9732C42.2235 64.5657 43.3795 64.2353 44.8771 63.8109ZM68.052 64.9635C68.2447 64.4982 68.5301 64.0159 68.6496 63.4975C69.3959 60.2881 70.1178 57.0715 70.8129 53.85C70.9885 53.0374 71.0446 52.2393 72.1373 52.0898C72.4056 52.0536 72.6958 51.7377 72.8568 51.4773C73.2494 50.848 73.6543 50.2042 73.9104 49.5146C74.9152 46.8019 75.4835 44.0169 74.686 41.1499C74.2884 39.7224 73.686 39.6187 72.6982 40.699C72.3495 41.0799 71.9592 41.4778 71.7665 41.9384C70.9544 43.8722 70.0495 45.7867 69.4788 47.7929C68.6008 50.8769 67.8081 53.9633 66.2765 56.8279C65.1033 59.0198 64.7033 61.4527 64.4058 63.917C65.6253 64.2691 66.7813 64.5994 68.052 64.9635Z" fill="black"/>
<path d="M60.1181 29.6074C59.7157 29.8847 59.306 30.3838 58.9133 30.3718C58.5694 30.3621 57.9938 29.7907 57.9767 29.4459C57.9621 29.1203 58.5206 28.5199 58.8645 28.491C59.2547 28.4572 59.6913 28.925 60.1059 29.1734C60.1108 29.3181 60.1157 29.4627 60.1181 29.6074Z" fill="black"/>
<path d="M68.7861 34.471C68.1203 34.9315 67.7617 35.3631 67.352 35.4186C66.7398 35.5006 66.3057 35.0569 66.3228 34.4131C66.3398 33.7741 66.7837 33.3425 67.3959 33.4582C67.8032 33.5354 68.1398 33.9815 68.7861 34.471Z" fill="black"/>
<path d="M60.801 19.1185C60.1133 19.5863 59.745 20.0275 59.3303 20.0782C58.706 20.1529 58.206 19.6514 58.3523 19.0486C58.4426 18.6748 59.0011 18.195 59.3791 18.166C59.7377 18.1395 60.1328 18.6411 60.801 19.1185Z" fill="black"/>
<path d="M59.3499 22.6748C59.8206 23.3403 60.2669 23.6996 60.3206 24.1071C60.3986 24.7268 59.8962 25.2187 59.2816 25.0692C58.8962 24.9752 58.3987 24.4374 58.3694 24.0685C58.3426 23.7165 58.8621 23.3258 59.3499 22.6748Z" fill="black"/>
<path d="M64.8424 21.5998C64.1912 22.0893 63.8521 22.5329 63.4473 22.6029C62.8375 22.7066 62.3985 22.2749 62.3839 21.636C62.3693 20.9873 62.8107 20.5581 63.4205 20.6449C63.8253 20.7052 64.1765 21.1344 64.8424 21.5998Z" fill="black"/>
<path d="M65.3277 31.1603C64.9448 31.4207 64.5862 31.8571 64.1765 31.9054C63.5594 31.9777 63.04 31.5099 63.1985 30.8878C63.2936 30.5068 63.8277 30.0222 64.2058 29.986C64.5545 29.9522 64.9545 30.4562 65.3301 30.7214C65.3301 30.8661 65.3277 31.0132 65.3277 31.1603Z" fill="black"/>
<path d="M58.7254 40.2991C58.4449 39.9012 57.94 39.4961 57.9522 39.1079C57.9644 38.7679 58.5156 38.2447 58.9034 38.1651C59.5132 38.0397 60.001 38.534 59.9083 39.1489C59.8473 39.5564 59.4132 39.9108 59.1449 40.2894C59.0083 40.2942 58.8669 40.2966 58.7254 40.2991Z" fill="black"/>
<path d="M67.5178 25.5274C67.1252 25.7758 66.7008 26.2556 66.3496 26.2098C65.974 26.1592 65.4472 25.6504 65.3764 25.2718C65.2618 24.6593 65.7862 24.1916 66.4105 24.3025C66.8203 24.3748 67.1593 24.8209 67.5325 25.0982C67.5276 25.2405 67.5227 25.3827 67.5178 25.5274Z" fill="black"/>
<path d="M62.8644 25.8695C63.1107 26.2794 63.579 26.711 63.5399 27.0944C63.5058 27.4368 62.9034 27.9817 62.5741 27.9673C62.2302 27.9528 61.6595 27.3813 61.6498 27.0414C61.6376 26.6531 62.1375 26.2529 62.4156 25.8574C62.5644 25.8598 62.7131 25.8647 62.8644 25.8695Z" fill="black"/>
<path d="M69.4959 30.2587C69.0886 30.5167 68.6642 30.9942 68.2764 30.9652C67.9277 30.9387 67.4131 30.3937 67.3472 30.0128C67.2423 29.41 67.7374 28.947 68.374 29.0724C68.7837 29.1544 69.1276 29.5667 69.5032 29.8295C69.5008 29.9742 69.4984 30.1165 69.4959 30.2587Z" fill="black"/>
<path d="M67.9959 37.0488C68.274 37.4153 68.7252 37.7553 68.7886 38.1532C68.8861 38.7681 68.413 39.2768 67.7886 39.149C67.4033 39.0695 66.8984 38.5583 66.8496 38.1894C66.8033 37.8494 67.2959 37.4395 67.5496 37.0585C67.6984 37.0561 67.8471 37.0512 67.9959 37.0488Z" fill="black"/>
<path d="M59.0669 52.4035C58.8255 52.0153 58.4352 51.6464 58.3816 51.234C58.306 50.6529 58.7328 50.2623 59.3596 50.2768C60.0254 50.2912 60.4596 50.718 60.3425 51.3353C60.2669 51.7356 59.8084 52.0635 59.5206 52.4252C59.3669 52.418 59.2182 52.4107 59.0669 52.4035Z" fill="black"/>
<path d="M63.4083 36.084C63.6644 36.4553 64.1546 36.8532 64.1156 37.1908C64.0717 37.5645 63.5936 38.0877 63.218 38.177C62.601 38.3216 62.1108 37.8418 62.2034 37.21C62.262 36.8074 62.6839 36.4601 62.9424 36.0864C63.0961 36.0864 63.2522 36.084 63.4083 36.084Z" fill="black"/>
<path d="M60.7717 45.8135C60.5132 45.4398 60.0962 45.0901 60.0303 44.6875C59.9279 44.0509 60.4132 43.5686 61.0352 43.7133C61.4132 43.8001 61.8961 44.3234 61.94 44.6947C61.979 45.0371 61.4937 45.4398 61.24 45.8159C61.0815 45.8135 60.9254 45.8135 60.7717 45.8135Z" fill="black"/>
<path d="M64.3375 48.7843C63.9595 49.0423 63.5595 49.5293 63.2107 49.4956C62.8351 49.4594 62.2985 48.9844 62.2083 48.6107C62.0571 47.9958 62.5497 47.5111 63.1839 47.5955C63.5912 47.6486 63.9521 48.0705 64.3326 48.3261C64.3351 48.4804 64.3375 48.6324 64.3375 48.7843Z" fill="black"/>
<path d="M60.1547 57.5174C59.8986 57.1413 59.4913 56.7916 59.4206 56.3866C59.3109 55.7548 59.7767 55.3521 60.4108 55.3666C61.045 55.3786 61.4962 55.7982 61.3596 56.4251C61.2718 56.8302 60.8498 57.163 60.5767 57.5271C60.4352 57.5223 60.2962 57.5198 60.1547 57.5174Z" fill="black"/>
<path d="M60.2986 35.0879C60.0425 34.7093 59.64 34.3573 59.5693 33.9474C59.4693 33.3687 59.8791 32.9732 60.5083 32.966C61.1766 32.9563 61.6278 33.347 61.5254 33.9739C61.4595 34.3766 61.0205 34.7214 60.7498 35.0927C60.5986 35.0927 60.4473 35.0903 60.2986 35.0879Z" fill="black"/>
<path d="M64.757 40.7617C65.0302 41.1234 65.54 41.502 65.5156 41.8444C65.4912 42.2133 65.0253 42.7486 64.6497 42.8547C64.0302 43.0283 63.5303 42.5581 63.5912 41.9312C63.6327 41.5261 64.0522 41.1596 64.301 40.7762C64.4546 40.7738 64.6058 40.769 64.757 40.7617Z" fill="black"/>
</g>
<defs>
<linearGradient id="paint0_linear_0_1" x1="54.5" y1="109" x2="54.5" y2="6.49906e-07" gradientUnits="userSpaceOnUse">
<stop stop-color="#E0E0E0"/>
<stop offset="0.481667" stop-color="#D1D1D1"/>
<stop offset="1" stop-color="#AEAEAE"/>
</linearGradient>
<clipPath id="clip0_0_1">
<rect width="87" height="75" fill="white" transform="translate(11 12)"/>
</clipPath>
</defs>
</svg>
