<svg width="62" height="66" viewBox="0 0 62 66" fill="none" xmlns="http://www.w3.org/2000/svg">
<g clip-path="url(#clip0_79_915)">
<path d="M42.1231 0C42.8516 0.365021 43.0648 0.952155 43.0595 1.74418C43.0316 6.10378 43.0455 10.4651 43.0455 14.8247C43.0455 15.0589 43.0455 15.293 43.0455 15.6047C43.3303 15.6167 43.5801 15.6391 43.8299 15.6391C49.2787 15.6408 54.7293 15.6408 60.1781 15.6408C61.5949 15.6408 62.0002 16.0437 62.0002 17.447C62.0002 19.1016 62.0019 20.7546 62.0002 22.4092C62.0002 23.7229 61.6403 24.0949 60.3213 24.1517C60.2148 24.1568 60.11 24.1741 59.9213 24.1947C59.9213 24.4823 59.9213 24.7526 59.9213 25.0229C59.9213 38.0827 59.9213 51.1426 59.9213 64.2024C59.9213 65.6229 59.5404 66.0017 58.1079 66.0017C40.0373 66.0017 21.9666 66.0017 3.89592 66.0017C2.46515 66.0017 2.08431 65.6229 2.08431 64.2007C2.08431 51.1633 2.08431 38.1241 2.08431 25.0866C2.08431 24.8094 2.08431 24.5305 2.08431 24.1861C1.81877 24.1723 1.58642 24.162 1.35582 24.1482C0.543482 24.1 0.0263782 23.6437 0.0176433 22.8603C-0.0050673 20.8837 -0.0050673 18.9088 0.0176433 16.9322C0.0263782 16.209 0.513783 15.739 1.24227 15.658C1.45715 15.6339 1.67727 15.6443 1.89564 15.6443C7.30077 15.6443 12.7076 15.6443 18.1128 15.6443C18.3696 15.6443 18.6264 15.6443 18.9618 15.6443C18.9618 15.3309 18.9618 15.0795 18.9618 14.8281C18.9618 10.4685 18.9775 6.10722 18.9478 1.74763C18.9426 0.955598 19.1557 0.368465 19.8842 0.0051654C27.2966 0 34.709 0 42.1231 0ZM38.4667 45.5054C38.4667 49.4208 38.4667 53.3172 38.4667 57.2567C39.5429 57.2567 40.5648 57.2446 41.5868 57.2601C42.5442 57.2756 43.0351 57.7664 43.0508 58.6961C43.0613 59.254 43.0525 59.8136 43.0525 60.3714C43.0525 61.3735 43.0525 62.3739 43.0525 63.388C47.841 63.388 52.5386 63.388 57.2659 63.388C57.2659 50.3092 57.2659 37.2615 57.2659 24.1896C39.735 24.1896 22.2426 24.1896 4.74495 24.1896C4.74495 37.2821 4.74495 50.3299 4.74495 63.3846C9.48797 63.3846 14.1873 63.3846 18.9513 63.3846C18.9513 63.1418 18.9513 62.9318 18.9513 62.7234C18.9513 61.3701 18.9426 60.0167 18.9548 58.6634C18.9635 57.8008 19.4509 57.3066 20.3192 57.2619C20.6459 57.2447 20.9726 57.2567 21.2992 57.2567C22.0522 57.2567 22.8051 57.2567 23.5441 57.2567C23.5686 57.0862 23.586 57.0225 23.586 56.9588C23.5895 53.2639 23.5965 49.5689 23.5755 45.8739C23.5738 45.7 23.3659 45.4486 23.1895 45.3677C22.5658 45.0853 22.1867 44.5498 22.2775 43.9592C22.3719 43.3394 22.8471 42.9124 23.5284 42.8366C23.6367 42.8246 23.7467 42.8263 23.8551 42.8263C28.6295 42.8263 33.404 42.8246 38.1785 42.8298C38.3934 42.8298 38.6187 42.8521 38.8214 42.9158C39.7647 43.2068 40.053 44.3811 39.3245 45.0354C39.0974 45.242 38.7724 45.3436 38.4667 45.5054ZM21.5997 15.5892C27.9028 15.5892 34.1447 15.5892 40.3866 15.5892C40.3866 11.233 40.3866 6.9268 40.3866 2.6223C34.101 2.6223 27.8591 2.6223 21.5997 2.6223C21.5997 6.95779 21.5997 11.2485 21.5997 15.5892ZM2.64858 21.5139C21.591 21.5139 40.467 21.5139 59.3378 21.5139C59.3378 20.3964 59.3378 19.3358 59.3378 18.2735C40.4129 18.2735 21.5368 18.2735 2.64858 18.2735C2.64858 19.3771 2.64858 20.424 2.64858 21.5139ZM26.2397 57.205C29.4506 57.205 32.5952 57.205 35.7432 57.205C35.7432 53.257 35.7432 49.3623 35.7432 45.4624C32.5497 45.4624 29.4087 45.4624 26.2397 45.4624C26.2397 49.3984 26.2397 53.2776 26.2397 57.205ZM21.6085 63.3829C27.9063 63.3829 34.1447 63.3829 40.3971 63.3829C40.3971 62.1965 40.3971 61.0498 40.3971 59.8704C34.122 59.8704 27.8853 59.8704 21.6085 59.8704C21.6085 61.0498 21.6085 62.1965 21.6085 63.3829Z" fill="black"/>
<path d="M18.8481 33.6612C18.8481 35.0576 18.8533 36.454 18.8463 37.8486C18.8411 38.8783 18.3781 39.3346 17.3212 39.338C14.9017 39.3449 12.4821 39.3449 10.0643 39.338C9.02485 39.3346 8.53919 38.8645 8.53569 37.8366C8.52521 35.0232 8.52521 32.2097 8.53569 29.3963C8.53919 28.3891 9.04057 27.8984 10.0765 27.8915C12.4961 27.8777 14.9156 27.876 17.3334 27.8915C18.3764 27.8984 18.8428 28.3839 18.8481 29.4067C18.8533 30.8254 18.8481 32.2425 18.8481 33.6612ZM16.1857 36.726C16.1857 34.6134 16.1857 32.5679 16.1857 30.5086C14.4981 30.5086 12.856 30.5086 11.1841 30.5086C11.1841 32.5989 11.1841 34.6444 11.1841 36.726C12.8664 36.726 14.5086 36.726 16.1857 36.726Z" fill="black"/>
<path d="M43.1572 33.5854C43.1572 32.2114 43.1537 30.8357 43.1589 29.4617C43.1624 28.3821 43.6132 27.8983 44.6841 27.8914C47.1036 27.8759 49.5232 27.8759 51.941 27.8914C52.9717 27.8983 53.4678 28.3941 53.4731 29.4048C53.4835 32.2183 53.4835 35.0317 53.4731 37.8451C53.4696 38.8644 52.9752 39.3327 51.9322 39.3362C49.5127 39.3431 47.0931 39.3431 44.6753 39.3362C43.6236 39.3327 43.1659 38.8747 43.1607 37.8382C43.152 36.4212 43.1572 35.0041 43.1572 33.5854ZM50.8334 30.5051C49.1179 30.5051 47.4757 30.5051 45.8283 30.5051C45.8283 32.6091 45.8283 34.6718 45.8283 36.7104C47.5246 36.7104 49.1668 36.7104 50.8334 36.7104C50.8334 34.6288 50.8334 32.6005 50.8334 30.5051Z" fill="black"/>
<path d="M18.8481 48.5874C18.8481 50.0044 18.855 51.4232 18.8446 52.8402C18.8376 53.7941 18.3589 54.2728 17.3998 54.2762C14.9366 54.2831 12.4734 54.2831 10.0119 54.2762C9.05628 54.2745 8.54092 53.7958 8.53568 52.8557C8.51996 49.9993 8.52171 47.1428 8.53568 44.2863C8.54092 43.3531 9.05279 42.8418 9.9944 42.8349C12.4576 42.8194 14.9209 42.8194 17.3823 42.8349C18.3694 42.8418 18.8393 43.3428 18.8446 44.3345C18.8533 45.7533 18.8481 47.1704 18.8481 48.5874ZM11.1823 51.6539C12.8752 51.6539 14.533 51.6539 16.1874 51.6539C16.1874 49.5602 16.1874 47.513 16.1874 45.4486C14.5016 45.4486 12.8612 45.4486 11.1823 45.4486C11.1823 47.5371 11.1823 49.5826 11.1823 51.6539Z" fill="black"/>
<path d="M43.1572 48.5255C43.1572 47.1291 43.1519 45.7327 43.1589 44.3381C43.1641 43.3205 43.6428 42.8384 44.6858 42.8332C47.1053 42.8229 49.5249 42.8212 51.9427 42.8332C52.9612 42.8384 53.4678 43.3412 53.4713 44.3501C53.4818 47.1636 53.4818 49.977 53.4713 52.7904C53.4678 53.808 52.9681 54.2763 51.9287 54.278C49.5091 54.2832 47.0896 54.2832 44.6718 54.278C43.6271 54.2763 43.1641 53.8166 43.1589 52.7783C43.1519 51.3596 43.1572 49.9425 43.1572 48.5255ZM50.8211 45.4555C49.1004 45.4555 47.4582 45.4555 45.8126 45.4555C45.8126 47.5527 45.8126 49.5999 45.8126 51.6695C47.4966 51.6695 49.1388 51.6695 50.8211 51.6695C50.8211 49.5896 50.8211 47.5424 50.8211 45.4555Z" fill="black"/>
<path d="M25.8534 33.6232C25.8534 32.2269 25.8464 30.8322 25.8551 29.4358C25.8621 28.3614 26.3216 27.8965 27.4064 27.8914C29.8033 27.8793 32.2001 27.8793 34.597 27.8914C35.6818 27.8965 36.1465 28.3631 36.15 29.4341C36.1588 32.2251 36.1588 35.0162 36.15 37.8072C36.1465 38.8937 35.6923 39.3344 34.5987 39.3379C32.2019 39.3448 29.805 39.3448 27.4082 39.3379C26.3111 39.3344 25.8639 38.8954 25.8551 37.8106C25.8447 36.4143 25.8534 35.0179 25.8534 33.6232ZM33.4999 30.5051C31.8228 30.5051 30.1824 30.5051 28.5053 30.5051C28.5053 32.5936 28.5053 34.6408 28.5053 36.7242C30.1824 36.7242 31.8228 36.7242 33.4999 36.7242C33.4999 34.6408 33.4999 32.5936 33.4999 30.5051Z" fill="black"/>
<path d="M32.3103 10.4048C32.3103 10.9661 32.3155 11.4327 32.3085 11.901C32.298 12.8239 31.7739 13.4128 30.9826 13.4007C30.2122 13.3887 29.7073 12.8136 29.695 11.9269C29.6881 11.4396 29.6933 10.9523 29.6933 10.4065C29.1255 10.4065 28.6311 10.4169 28.135 10.4048C27.2213 10.3824 26.6658 9.89171 26.6606 9.11862C26.6553 8.33692 27.2004 7.85138 28.1193 7.83244C28.6154 7.8221 29.1116 7.83071 29.6933 7.83071C29.6933 7.26941 29.6863 6.7632 29.695 6.25699C29.709 5.39265 30.2558 4.80551 31.0193 4.81756C31.7617 4.82962 32.2876 5.40298 32.3068 6.22944C32.319 6.70121 32.3155 7.17126 32.3242 7.64304C32.3242 7.68092 32.3557 7.7188 32.4063 7.83244C32.9095 7.83244 33.4475 7.81866 33.9856 7.83588C34.8084 7.86171 35.3325 8.35931 35.3413 9.09279C35.35 9.82972 34.8399 10.3549 34.024 10.3979C33.486 10.4289 32.9427 10.4048 32.3103 10.4048Z" fill="black"/>
</g>
<defs>
<clipPath id="clip0_79_915">
<rect width="62" height="66" fill="white"/>
</clipPath>
</defs>
</svg>
