<svg width="153" height="153" viewBox="0 0 153 153" fill="none" xmlns="http://www.w3.org/2000/svg">
<g filter="url(#filter0_d_0_1)">
<rect x="9" y="17" width="119" height="119" rx="14" fill="white"/>
</g>
<g clip-path="url(#clip0_0_1)">
<path style="mix-blend-mode:multiply" opacity="0.8" d="M80.7936 146C108.522 146 131 123.759 131 96.3228C131 68.8868 108.522 46.6455 80.7936 46.6455C53.0654 46.6455 30.5872 68.8868 30.5872 96.3228C30.5872 123.759 53.0654 146 80.7936 146Z" fill="url(#paint0_radial_0_1)"/>
<path d="M67.3071 113.765C89.5681 113.765 107.614 95.9087 107.614 73.8823C107.614 51.8559 89.5681 34 67.3071 34C45.0461 34 27 51.8559 27 73.8823C27 95.9087 45.0461 113.765 67.3071 113.765Z" fill="url(#paint1_linear_0_1)"/>
<path d="M78.4118 60.5312C77.9254 60.5313 77.4499 60.674 77.0454 60.9414C76.641 61.2088 76.3258 61.5888 76.1396 62.0335C75.9535 62.4782 75.9048 62.9675 75.9997 63.4395C76.0945 63.9116 76.3288 64.3452 76.6728 64.6855C77.0167 65.0259 77.4549 65.2576 77.932 65.3515C78.4091 65.4454 78.9036 65.3973 79.353 65.2131C79.8024 65.0289 80.1866 64.717 80.4568 64.3168C80.727 63.9166 80.8713 63.4461 80.8713 62.9648C80.8713 62.3194 80.6122 61.7004 80.1509 61.244C79.6897 60.7876 79.0641 60.5312 78.4118 60.5312Z" fill="white"/>
<path d="M67.4788 63.6572C65.4347 63.6566 63.4364 64.2558 61.7365 65.3791C60.0367 66.5023 58.7117 68.0992 57.9292 69.9676C57.1467 71.836 56.9418 73.8921 57.3404 75.8758C57.739 77.8595 58.7232 79.6817 60.1686 81.1118C61.614 82.542 63.4555 83.5158 65.4604 83.9102C67.4652 84.3047 69.5432 84.1019 71.4315 83.3276C73.3199 82.5534 74.9337 81.2423 76.0689 79.5604C77.2042 77.8785 77.8098 75.9012 77.8091 73.8787C77.8057 71.1688 76.7162 68.5709 74.7796 66.6548C72.8431 64.7386 70.2175 63.6606 67.4788 63.6572ZM67.4788 80.429C66.1696 80.4284 64.89 80.0437 63.8017 79.3235C62.7135 78.6034 61.8655 77.5801 61.3649 76.3832C60.8644 75.1862 60.7337 73.8692 60.9895 72.5988C61.2453 71.3284 61.8761 70.1615 62.8021 69.2458C63.728 68.33 64.9076 67.7065 66.1917 67.454C67.4758 67.2015 68.8067 67.3314 70.0162 67.8273C71.2256 68.3232 72.2594 69.1627 72.9867 70.2399C73.7139 71.317 74.1021 72.5833 74.1021 73.8787C74.1004 75.616 73.4019 77.2816 72.1601 78.5097C70.9183 79.7379 69.2346 80.4282 67.4788 80.429Z" fill="white"/>
<path d="M75.6802 94.6361H58.9307C55.5898 94.6318 52.387 93.3167 50.0246 90.9793C47.6622 88.6418 46.3331 85.4727 46.3289 82.167V65.594C46.3331 62.2883 47.6622 59.1193 50.0246 56.7818C52.387 54.4443 55.5898 53.1292 58.9307 53.125H75.6802C79.0211 53.1292 82.2239 54.4443 84.5863 56.7818C86.9487 59.1193 88.2778 62.2883 88.2821 65.594V82.167C88.2778 85.4727 86.9487 88.6418 84.5863 90.9793C82.2239 93.3167 79.0211 94.6318 75.6802 94.6361ZM58.9307 57.0302C56.636 57.0327 54.4361 57.9358 52.8135 59.5413C51.1909 61.1468 50.2782 63.3235 50.2756 65.594V82.167C50.2782 84.4375 51.1909 86.6143 52.8135 88.2198C54.4361 89.8252 56.636 90.7283 58.9307 90.7309H75.6802C77.9749 90.7283 80.1748 89.8252 81.7974 88.2198C83.42 86.6143 84.3327 84.4375 84.3353 82.167V65.594C84.3327 63.3235 83.42 61.1468 81.7974 59.5413C80.1748 57.9358 77.9749 57.0327 75.6802 57.0302H58.9307Z" fill="white"/>
</g>
<defs>
<filter id="filter0_d_0_1" x="0" y="0" width="153" height="153" filterUnits="userSpaceOnUse" color-interpolation-filters="sRGB">
<feFlood flood-opacity="0" result="BackgroundImageFix"/>
<feColorMatrix in="SourceAlpha" type="matrix" values="0 0 0 0 0 0 0 0 0 0 0 0 0 0 0 0 0 0 127 0" result="hardAlpha"/>
<feMorphology radius="1" operator="dilate" in="SourceAlpha" result="effect1_dropShadow_0_1"/>
<feOffset dx="8"/>
<feGaussianBlur stdDeviation="8"/>
<feComposite in2="hardAlpha" operator="out"/>
<feColorMatrix type="matrix" values="0 0 0 0 0.6 0 0 0 0 0.6 0 0 0 0 0.6 0 0 0 0.21 0"/>
<feBlend mode="normal" in2="BackgroundImageFix" result="effect1_dropShadow_0_1"/>
<feBlend mode="normal" in="SourceGraphic" in2="effect1_dropShadow_0_1" result="shape"/>
</filter>
<radialGradient id="paint0_radial_0_1" cx="0" cy="0" r="1" gradientUnits="userSpaceOnUse" gradientTransform="translate(80.7936 96.3228) scale(50.2064 49.6773)">
<stop stop-color="#000057"/>
<stop offset="0.39" stop-color="#7575A4" stop-opacity="0.54"/>
<stop offset="0.79" stop-color="#D9D9E6" stop-opacity="0.15"/>
<stop offset="1" stop-color="white" stop-opacity="0"/>
</radialGradient>
<linearGradient id="paint1_linear_0_1" x1="38.8047" y1="45.6803" x2="95.2023" y2="102.679" gradientUnits="userSpaceOnUse">
<stop stop-color="#FFE185"/>
<stop offset="0.21" stop-color="#FFBB36"/>
<stop offset="0.38" stop-color="#FF5176"/>
<stop offset="0.52" stop-color="#F63395"/>
<stop offset="0.74" stop-color="#A436D2"/>
<stop offset="1" stop-color="#5F4EED"/>
</linearGradient>
<clipPath id="clip0_0_1">
<rect width="104" height="112" fill="white" transform="translate(27 34)"/>
</clipPath>
</defs>
</svg>
