<svg width="118" height="119" viewBox="0 0 118 119" fill="none" xmlns="http://www.w3.org/2000/svg">
<ellipse cx="59" cy="59.5" rx="59" ry="59.5" fill="#DEBB00"/>
<g clip-path="url(#clip0_0_1)">
<path d="M59.2127 84.0015C56.3646 81.3001 53.758 78.3832 51.3089 75.3262C48.4468 71.7509 45.8503 67.9989 43.8411 63.8741C42.5718 61.2677 41.5582 58.5757 41.1709 55.6876C40.601 51.4336 41.4586 47.4567 43.7242 43.8269C46.7158 39.0329 51.0706 36.1533 56.6719 35.235C64.0755 34.0209 71.6657 37.6157 75.4318 44.0659C78.3936 49.1409 78.715 54.451 76.7982 59.9494C75.3691 64.0508 73.1999 67.76 70.7156 71.3011C67.6237 75.7091 64.1093 79.7654 60.275 83.5493C60.1182 83.705 59.952 83.8489 59.7905 83.9991L59.2127 84.0015ZM51.022 53.4081C51.022 58.0364 54.8438 61.8063 59.5388 61.8024C64.1641 61.8024 67.9757 58.0162 67.9827 53.4299C67.9898 48.7821 64.2135 44.9756 59.5851 44.9648C54.8281 44.9531 51.0259 48.7027 51.022 53.4081Z" fill="white"/>
</g>
<defs>
<clipPath id="clip0_0_1">
<rect width="37" height="49" fill="white" transform="translate(41 35)"/>
</clipPath>
</defs>
</svg>
