<svg width="118" height="119" viewBox="0 0 118 119" fill="none" xmlns="http://www.w3.org/2000/svg">
<ellipse cx="59" cy="59.5" rx="59" ry="59.5" fill="#DEBB00"/>
<g clip-path="url(#clip0_0_1)">
<path d="M83 72.4251C82.8528 72.8553 82.7547 73.3112 82.5487 73.7121C81.8129 75.1481 80.6025 75.8961 78.9924 75.9963C78.8697 76.0037 78.7471 75.9963 78.6245 75.9963C65.8536 75.9963 53.0831 75.9963 40.313 75.9963C38.2662 75.9963 36.6438 74.8059 36.1533 72.9274C36.0551 72.5436 36.0061 72.149 36.0074 71.7529C35.9992 63.5831 35.9992 55.4124 36.0074 47.241C36.0074 44.7832 37.8015 43.0012 40.2725 43C53.0884 43 65.9043 43 78.7201 43C80.8736 43 82.4445 44.265 82.9252 46.361C82.9466 46.4335 82.9728 46.5046 83.0037 46.5736L83 72.4251ZM40.8023 45.7731C40.9568 45.9344 41.0475 46.0347 41.1456 46.1312C46.8153 51.8095 52.4801 57.4926 58.14 63.1806C58.9506 64.0007 60.0739 63.9774 60.8551 63.1891C66.4962 57.4856 72.1609 51.8021 77.8494 46.1386C77.9525 46.0359 78.0469 45.9247 78.1867 45.7719L40.8023 45.7731ZM40.7826 73.2085H78.2186L66.4054 61.516C66.3159 61.6015 66.1945 61.7128 66.078 61.8301C64.9326 62.9765 63.7921 64.1278 62.6443 65.2693C60.8404 67.0598 58.1633 67.0573 56.3618 65.2693C55.6677 64.58 54.981 63.8833 54.2894 63.1916C53.7191 62.6208 53.1464 62.0513 52.6019 61.5086L40.7826 73.2085ZM38.7813 47.8337V71.1577L50.5711 59.5006L38.7813 47.8337ZM80.2077 71.1773V47.8899L68.435 59.5263L80.2077 71.1773Z" fill="white"/>
</g>
<defs>
<clipPath id="clip0_0_1">
<rect width="47" height="33" fill="white" transform="translate(36 43)"/>
</clipPath>
</defs>
</svg>
