<svg width="62" height="45" viewBox="0 0 62 45" fill="none" xmlns="http://www.w3.org/2000/svg">
<g clip-path="url(#clip0_79_936)">
<path d="M45.1861 33.7346C45.5139 34.7051 45.9619 35.6108 46.12 36.5693C46.8348 40.8913 43.834 44.7049 39.5898 44.7629C33.8402 44.8414 28.0857 44.8653 22.3362 44.7561C17.0609 44.6555 14.0569 38.9145 16.6887 34.1662C16.748 34.0587 16.8007 33.9478 16.8929 33.7653C16.6228 33.7534 16.4087 33.7346 16.1946 33.7346C12.7031 33.7312 9.20985 33.7636 5.71993 33.7193C2.50176 33.6801 0.0362501 30.9273 0.168007 27.6031C0.228945 26.0902 0.879496 24.8401 1.78697 23.6939C7.70946 16.2081 18.8627 16.5373 24.3043 24.3983C24.8494 25.1863 25.1409 26.1653 25.5823 27.1272C29.1282 25.9112 32.8125 25.9043 36.5165 27.1801C37.121 24.1715 39.1088 22.2902 41.3817 20.6955C43.9032 18.9251 46.7392 18.1167 49.7779 18.2923C54.3828 18.5584 58.0835 20.6494 60.7631 24.5416C62.0478 26.4075 62.1664 28.4763 61.1617 30.5213C60.1587 32.5629 58.492 33.6835 56.2669 33.7142C52.7754 33.7636 49.2838 33.7312 45.7922 33.7329C45.5765 33.7346 45.3591 33.7346 45.1861 33.7346ZM30.9811 43.2126C33.8155 43.2126 36.6483 43.2313 39.4827 43.2057C41.6254 43.187 43.2312 42.1739 44.1848 40.1869C45.1137 38.2493 44.9375 36.3425 43.7286 34.584C37.4948 25.5155 24.3833 25.5462 18.1907 34.6386C17.4546 35.7199 17.0906 36.9241 17.2355 38.2459C17.5583 41.2102 19.6582 43.1801 22.542 43.2074C25.355 43.2347 28.1681 43.2143 30.9811 43.2126ZM11.6259 32.1843C13.6171 32.1843 15.61 32.1996 17.6011 32.1672C17.9042 32.1621 18.283 32.0086 18.4938 31.7869C19.8015 30.4139 21.2492 29.2456 22.8928 28.3348C24.1001 27.6645 24.1626 27.4803 23.5829 26.1602C23.4314 25.8156 23.2338 25.4848 23.0164 25.1795C17.919 18.057 7.67652 18.0638 2.58246 25.1897C1.54981 26.6343 1.33735 28.1796 2.12295 29.7982C2.90691 31.4134 4.21789 32.186 5.95874 32.1843C7.84781 32.1843 9.73687 32.1843 11.6259 32.1843ZM50.2852 32.1843C52.2154 32.1843 54.1456 32.1911 56.0742 32.1826C57.7657 32.174 59.0421 31.3997 59.8161 29.8459C60.6034 28.2649 60.4469 26.7213 59.4439 25.2835C54.559 18.2702 44.5076 17.9939 39.2719 24.7258C38.7004 25.4609 38.2244 26.2369 38.0713 27.2006C38.0037 27.6219 38.0713 27.8419 38.4715 28.0363C40.3671 28.9607 42.0124 30.245 43.475 31.8005C43.6726 32.0103 44.0267 32.1655 44.31 32.1689C46.3011 32.1996 48.2923 32.1843 50.2852 32.1843Z" fill="black" stroke="black" stroke-width="2" stroke-miterlimit="10"/>
<path d="M39.4053 12.8516C39.4168 17.6681 35.6568 21.5807 31.0058 21.591C26.3482 21.6012 22.5832 17.7312 22.5552 12.9062C22.5272 8.07426 26.3268 4.11561 30.9844 4.11902C35.6222 4.12243 39.3938 8.03503 39.4053 12.8516ZM30.9778 5.69327C27.1453 5.69498 24.0539 8.90999 24.0622 12.8823C24.0704 16.8154 27.1634 20.0321 30.9514 20.0457C34.7691 20.0594 37.8967 16.8341 37.9 12.8789C37.9049 8.90488 34.8086 5.68986 30.9778 5.69327Z" fill="black" stroke="black" stroke-width="2" stroke-miterlimit="10"/>
<path d="M56.2026 7.47557C56.196 11.4905 52.9778 14.8061 49.1206 14.7703C45.2634 14.7362 42.1013 11.4427 42.1062 7.46533C42.1111 3.45722 45.3458 0.127932 49.1914 0.170571C53.0651 0.214916 56.2092 3.48963 56.2026 7.47557ZM49.1602 13.1944C52.2219 13.191 54.6758 10.6514 54.6824 7.48068C54.689 4.31172 52.2466 1.76358 49.1832 1.74311C46.1116 1.72265 43.6099 4.31001 43.6247 7.48921C43.6395 10.6565 46.105 13.1978 49.1602 13.1944Z" fill="black" stroke="black" stroke-width="2" stroke-miterlimit="10"/>
<path d="M5.76112 7.4653C5.76771 3.44525 8.98423 0.129607 12.8381 0.170541C16.7068 0.211475 19.8591 3.49301 19.8542 7.47383C19.8493 11.4802 16.6196 14.8061 12.769 14.7703C8.90517 14.7345 5.75453 11.4495 5.76112 7.4653ZM7.27797 7.4329C7.25821 10.6036 9.68748 13.1602 12.7525 13.1926C15.8307 13.225 18.3324 10.6633 18.3357 7.47383C18.339 4.31339 15.8817 1.75844 12.8233 1.74309C9.76818 1.72944 7.29774 4.26393 7.27797 7.4329Z" fill="black" stroke="black" stroke-width="2" stroke-miterlimit="10"/>
</g>
<defs>
<clipPath id="clip0_79_936">
<rect width="62" height="45" fill="white"/>
</clipPath>
</defs>
</svg>
