<svg width="118" height="119" viewBox="0 0 118 119" fill="none" xmlns="http://www.w3.org/2000/svg">
<ellipse cx="59" cy="59.5" rx="59" ry="59.5" fill="#DEBB00"/>
<g clip-path="url(#clip0_0_1)">
<path d="M71.462 83.0007C70.3141 82.7543 69.1512 82.5629 68.0182 82.2478C65.6902 81.6004 63.5274 80.5576 61.4428 79.3555C55.5298 75.9452 50.4754 71.5059 45.9916 66.3951C43.0827 63.0811 40.5411 59.5104 38.5805 55.5513C37.3728 53.1162 36.4235 50.5871 36.0986 47.8736C35.8954 46.1673 35.9505 44.4713 36.7874 42.9106C37.0553 42.4132 37.3906 41.9552 37.7838 41.5492C39.1498 40.1432 40.5641 38.7853 41.9359 37.3849C43.838 35.4426 46.7905 35.642 48.587 37.3849C50.7279 39.4671 52.8344 41.5848 54.9305 43.7104C56.7787 45.584 56.7925 48.3904 54.9581 50.099C54.5493 50.4658 54.0766 50.7548 53.5633 50.9515C52.2811 51.4557 51.2675 52.2235 50.7119 53.5127C50.3486 54.3441 50.2853 55.2755 50.5328 56.1483C51.2158 58.7002 52.668 60.8007 54.4128 62.7213C56.2289 64.7198 58.2848 66.4226 60.7265 67.6109C61.8032 68.1346 62.9076 68.5999 64.1565 68.4371C65.8428 68.2171 67.1262 67.4058 67.7932 65.8015C68.2064 64.808 68.6932 63.8981 69.6414 63.3057C71.4172 62.1965 73.6063 62.3981 75.1733 63.9222C77.3811 66.0674 79.5599 68.2416 81.7096 70.4448C83.4671 72.2531 83.4017 75.1431 81.6189 76.9468C80.2116 78.3757 78.7801 79.7818 77.3624 81.2016C76.3579 82.2077 75.1228 82.7176 73.7326 82.9056C73.6162 82.9279 73.5012 82.957 73.3882 82.9927L71.462 83.0007Z" fill="white"/>
</g>
<defs>
<clipPath id="clip0_0_1">
<rect width="47" height="47" fill="white" transform="translate(36 36)"/>
</clipPath>
</defs>
</svg>
