<svg width="128" height="131" viewBox="0 0 128 131" fill="none" xmlns="http://www.w3.org/2000/svg">
<path d="M60.0377 119.825C93.1957 119.825 120.075 93.0009 120.075 59.9123C120.075 26.8236 93.1957 0 60.0377 0C26.8798 0 0 26.8236 0 59.9123C0 93.0009 26.8798 119.825 60.0377 119.825Z" fill="#DEBB00"/>
<mask id="mask0_79_2724" style="mask-type:luminance" maskUnits="userSpaceOnUse" x="0" y="0" width="121" height="120">
<path d="M60.0377 119.825C93.1957 119.825 120.075 93.0009 120.075 59.9123C120.075 26.8236 93.1957 0 60.0377 0C26.8798 0 0 26.8236 0 59.9123C0 93.0009 26.8798 119.825 60.0377 119.825Z" fill="white"/>
</mask>
<g mask="url(#mask0_79_2724)">
<g opacity="0.25">
<path d="M64.4777 45.667L50.5332 66.705H64.4777V45.667ZM35.5913 78.9596V67.5323L61.8161 30.0969H77.6712V66.705H84.4782V78.9656H77.6712V89.7334H63.4804V78.9596H35.5913Z" fill="black"/>
<path d="M64.6579 45.8349L50.7133 66.8728H64.6579V45.8349ZM35.7715 79.1335V67.7062L61.9963 30.2708H77.8514V66.8788H84.6584V79.1394H77.8514V89.9072H63.6605V79.1394H35.7715V79.1335Z" fill="#010101"/>
<path d="M64.8383 46.0088L50.8937 67.0468H64.8383V46.0088ZM35.9519 79.3014V67.8741L62.1767 30.4387H78.0318V67.0468H84.8388V79.3074H78.0318V90.0752H63.8409V79.3074H35.9519V79.3014Z" fill="#020202"/>
<path d="M65.0184 46.1766L51.0739 67.2145H65.0184V46.1766ZM36.1321 79.4692V68.0419L62.3569 30.6064H78.212V67.2145H85.019V79.4751H78.212V90.2429H64.0211V79.4751H36.1321V79.4692Z" fill="#030303"/>
<path d="M65.1986 46.3446L51.2541 67.3826H65.1986V46.3446ZM36.3123 79.6432V68.2159L62.5371 30.7805H78.3921V67.3886H85.1992V79.6492H78.3921V90.417H64.2013V79.6492H36.3123V79.6432Z" fill="#040404"/>
<path d="M65.3728 46.5184L51.4283 67.5563H65.3728V46.5184ZM36.4924 79.8109V68.3837L62.7173 30.9482H78.5723V67.5563H85.3794V79.8169H78.5723V90.5847H64.3815V79.8169H36.4924V79.8109Z" fill="#050505"/>
<path d="M65.5532 46.6862L51.6087 67.7241H65.5532V46.6862ZM36.6729 79.9848V68.5575L62.8977 31.1221H78.7527V67.7301H85.5598V79.9908H78.7527V90.7586H64.5619V79.9908H36.6729V79.9848Z" fill="#060606"/>
<path d="M65.7334 46.8602L51.7889 67.8981H65.7334V46.8602ZM36.853 80.1527V68.7255L63.0779 31.29H78.9329V67.8981H85.74V80.1587H78.9329V90.9265H64.7421V80.1587H36.853V80.1527Z" fill="#070707"/>
<path d="M65.9136 47.028L51.969 68.0659H65.9136V47.028ZM37.0332 80.3266V68.8993L63.258 31.4639H79.1131V68.0719H85.9201V80.3326H79.1131V91.1003H64.9222V80.3326H37.0332V80.3266Z" fill="#080808"/>
<path d="M66.0937 47.202L52.1492 68.2399H66.0937V47.202ZM37.2134 80.4945V69.0673L63.4382 31.6318H79.2933V68.2399H86.1003V80.5005H79.2933V91.2683H65.1024V80.5005H37.2134V80.4945Z" fill="#090909"/>
<path d="M66.2742 47.3698L52.3296 68.4077H66.2742V47.3698ZM37.3938 80.6684V69.2411L63.6186 31.8057H79.4737V68.4137H86.2807V80.6744H79.4737V91.4421H65.2828V80.6744H37.3938V80.6684Z" fill="#0A0A0A"/>
<path d="M66.4543 47.5435L52.5098 68.5754H66.4543V47.5435ZM37.574 80.8361V69.4088L63.7988 31.9734H79.6539V68.5814H86.4609V80.8421H79.6539V91.6099H65.463V80.8421H37.574V80.8361Z" fill="#0B0B0B"/>
<path d="M66.6345 47.7115L52.69 68.7494H66.6345V47.7115ZM37.7542 81.0041V69.5768L63.979 32.1414H79.834V68.7494H86.6411V81.0101H79.834V91.7778H65.6432V81.0101H37.7542V81.0041Z" fill="#0C0C0C"/>
<path d="M66.8148 47.8793L52.8703 68.9172H66.8148V47.8793ZM37.9285 81.1779V69.7506L64.1533 32.3152H80.0084V68.9232H86.8154V81.1839H80.0084V91.9517H65.8175V81.1779H37.9285Z" fill="#0D0D0D"/>
<path d="M66.995 48.0533L53.0505 69.0912H66.995V48.0533ZM38.1086 81.3459V69.9186L64.3335 32.4832H80.1885V69.0912H86.9956V81.3519H80.1885V92.1196H65.9977V81.3519H38.1086V81.3459Z" fill="#0E0E0E"/>
<path d="M67.1752 48.221L53.2307 69.2589H67.1752V48.221ZM38.2888 81.5196V70.0863L64.5136 32.6509H80.3687V69.2589H87.1758V81.5196H80.3687V92.2874H66.1779V81.5196H38.2888Z" fill="#0F0F0F"/>
<path d="M67.3556 48.3951L53.4111 69.433H67.3556V48.3951ZM38.4692 81.6877V70.2604L64.6941 32.825H80.5491V69.433H87.3562V81.6936H80.5491V92.4614H66.3583V81.6936H38.4692V81.6877Z" fill="#101010"/>
<path d="M67.5358 48.5629L53.5913 69.6008H67.5358V48.5629ZM38.6494 81.8615V70.4342L64.8742 32.9988H80.7293V69.6068H87.5363V81.8675H80.7293V92.6353H66.5385V81.8675H38.6494V81.8615Z" fill="#111111"/>
<path d="M67.716 48.7366L53.7714 69.7746H67.716V48.7366ZM38.8296 82.0292V70.6019L65.0544 33.1665H80.9095V69.7746H87.7165V82.0352H80.9095V92.803H66.7186V82.0352H38.8296V82.0292Z" fill="#121212"/>
<path d="M67.8961 48.9045L53.9516 69.9424H67.8961V48.9045ZM39.0098 82.203V70.7758L65.2346 33.3403H81.0897V69.9484H87.8967V82.209H81.0897V92.9768H66.8988V82.209H39.0098V82.203Z" fill="#131313"/>
<path d="M68.0705 49.0784L54.132 70.1104H68.0765V49.0784H68.0705ZM39.1902 82.371V70.9437L65.415 33.5083H81.2701V70.1164H88.0771V82.377H81.2701V93.1448H67.0792V82.377H39.1902V82.371Z" fill="#141414"/>
<path d="M68.2507 49.2464L54.3122 70.2843H68.2567V49.2464H68.2507ZM39.3704 82.539V71.1117L65.5952 33.6763H81.4503V70.2843H88.2573V82.545H81.4503V93.3128H67.2594V82.545H39.3704V82.539Z" fill="#151515"/>
<path d="M68.4309 49.4142L54.4864 70.4522H68.4309V49.4142ZM39.5505 82.7128V71.2855L65.7754 33.8501H81.6304V70.4582H88.4375V82.7188H81.6304V93.4866H67.4396V82.7188H39.5505V82.7128Z" fill="#161616"/>
<path d="M68.6111 49.5879L54.6666 70.6259H68.6111V49.5879ZM39.7307 82.8805V71.4532L65.9555 34.0178H81.8106V70.6259H88.6176V82.8865H81.8106V93.6543H67.6198V82.8865H39.7307V82.8805Z" fill="#171717"/>
<path d="M68.7915 49.756L54.847 70.794H68.7915V49.756ZM39.9111 83.0546V71.6273L66.136 34.1919H81.991V70.7999H88.7981V83.0606H81.991V93.8284H67.8002V83.0606H39.9111V83.0546Z" fill="#181818"/>
<path d="M68.9717 49.9297L55.0271 70.9677H68.9717V49.9297ZM40.0913 83.2223V71.795L66.3161 34.3596H82.1712V70.9677H88.9782V83.2283H82.1712V93.9961H67.9803V83.2283H40.0913V83.2223Z" fill="#191919"/>
<path d="M69.1518 50.0976L55.2073 71.1355H69.1518V50.0976ZM40.2715 83.3962V71.9689L66.4963 34.5334H82.3514V71.1415H89.1584V83.4021H82.3514V94.1699H68.1605V83.3962H40.2715Z" fill="#1A1A1A"/>
<path d="M69.3322 50.2715L55.3876 71.3095H69.3322V50.2715ZM40.4458 83.5641V72.1368L66.6706 34.7014H82.5257V71.3095H89.3327V83.5701H82.5257V94.3379H68.3348V83.5701H40.4458V83.5641Z" fill="#1B1B1B"/>
<path d="M69.5123 50.4395L55.5678 71.4774H69.5123V50.4395ZM40.626 83.7381V72.3048L66.8508 34.8694H82.7059V71.4774H89.5129V83.7381H82.7059V94.5059H68.515V83.7381H40.626Z" fill="#1C1C1C"/>
<path d="M69.6925 50.6133L55.748 71.6453H69.6925V50.6133ZM40.8062 83.9059V72.4786L67.031 35.0432H82.886V71.6513H89.6931V83.9119H82.886V94.6797H68.6952V83.9119H40.8062V83.9059Z" fill="#1D1D1D"/>
<path d="M69.8729 50.7811L55.9284 71.819H69.8729V50.7811ZM40.9866 84.0736V72.6464L67.2114 35.2109H83.0665V71.819H89.8735V84.0796H83.0665V94.8474H68.8756V84.0796H40.9866V84.0736Z" fill="#1E1E1E"/>
<path d="M70.0531 50.9489L56.1086 71.9868H70.0531V50.9489ZM41.1667 84.2475V72.8202L67.3916 35.3848H83.2466V71.9928H90.0537V84.2535H83.2466V95.0212H69.0558V84.2535H41.1667V84.2475Z" fill="#1F1F1F"/>
<path d="M70.2333 51.1228L56.2888 72.1608H70.2333V51.1228ZM41.3469 84.4154V72.9882L67.5718 35.5527H83.4268V72.1608H90.2339V84.4214H83.4268V95.1892H69.236V84.4154H41.3469Z" fill="#202020"/>
<path d="M70.4135 51.2907L56.4689 72.3286H70.4135V51.2907ZM41.5271 84.5893V73.162L67.7519 35.7266H83.607V72.3346H90.414V84.5953H83.607V95.363H69.4161V84.5953H41.5271V84.5893Z" fill="#212121"/>
<path d="M70.5879 51.4646L56.6434 72.5026H70.5879V51.4646ZM41.7075 84.7572V73.33L67.9324 35.8945H83.7874V72.5026H90.5944V84.7632H83.7874V95.531H69.5966V84.7632H41.7075V84.7572Z" fill="#222222"/>
<path d="M70.7681 51.6325L56.8235 72.6704H70.7681V51.6325ZM41.8877 84.9311V73.5038L68.1125 36.0684H83.9676V72.6764H90.7746V84.9371H83.9676V95.7048H69.7767V84.9371H41.8877V84.9311Z" fill="#232323"/>
<path d="M70.9482 51.8064L57.0097 72.8444H70.9542V51.8064H70.9482ZM42.0679 85.099V73.6718L68.2927 36.2363H84.1478V72.8444H90.9548V85.105H84.1478V95.8728H69.9569V85.105H42.0679V85.099Z" fill="#242424"/>
<path d="M71.1284 51.9743L57.1839 73.0122H71.1284V51.9743ZM42.248 85.2729V73.8456L68.4729 36.4102H84.3279V73.0182H91.135V85.2789H84.3279V96.0466H70.1371V85.2789H42.248V85.2729Z" fill="#252525"/>
<path d="M71.3088 52.1481L57.3643 73.1861H71.3088V52.1481ZM42.4285 85.4407V74.0134L68.6533 36.572H84.5084V73.1801H91.3154V85.4407H84.5084V96.2085H70.3175V85.4407H42.4285Z" fill="#262626"/>
<path d="M71.489 52.316L57.5445 73.3539H71.489V52.316ZM42.6086 85.6085V74.1813L68.8335 36.7458H84.6885V73.3539H91.4956V85.6146H84.6885V96.3823H70.4977V85.6146H42.6086V85.6085Z" fill="#272727"/>
<path d="M71.6692 52.4838L57.7247 73.5217H71.6692V52.4838ZM42.7888 85.7824V74.3551L69.0136 36.9197H84.8687V73.5277H91.6757V85.7884H84.8687V96.5562H70.6779V85.7884H42.7888V85.7824Z" fill="#282828"/>
<path d="M71.8494 52.6578L57.9048 73.6957H71.8494V52.6578ZM42.969 85.9504V74.5231L69.1938 37.0876H85.0489V73.6957H91.8559V85.9563H85.0489V96.7241H70.858V85.9563H42.969V85.9504Z" fill="#292929"/>
<path d="M72.0297 52.8256L58.0852 73.8635H72.0297V52.8256ZM43.1433 86.1242V74.6969L69.3681 37.2615H85.2232V73.8695H92.0302V86.1302H85.2232V96.898H71.0324V86.1302H43.1433V86.1242Z" fill="#2A2A2A"/>
<path d="M72.2099 52.9996L58.2653 74.0375H72.2099V52.9996ZM43.3235 86.2921V74.8649L69.5483 37.4294H85.4034V74.0375H92.2104V86.2981H85.4034V97.0659H71.2125V86.2981H43.3235V86.2921Z" fill="#2B2B2B"/>
<path d="M72.3903 53.1674L58.4457 74.2053H72.3903V53.1674ZM43.5039 86.466V75.0387L69.7287 37.6033H85.5838V74.2113H92.3908V86.472H85.5838V97.2398H71.3929V86.472H43.5039V86.466Z" fill="#2C2C2C"/>
<path d="M72.5704 53.3411L58.6259 74.3791H72.5704V53.3411ZM43.6841 86.6337V75.2064L69.9149 37.771H85.77V74.3791H92.577V86.6397H85.77V97.4075H71.5791V86.6337H43.6841Z" fill="#2D2D2D"/>
<path d="M72.7506 53.5089L58.8061 74.5469H72.7506V53.5089ZM43.8643 86.8075V75.3803L70.0891 37.9448H85.9441V74.5529H92.7512V86.8135H85.9441V97.5813H71.7533V86.8135H43.8643V86.8075Z" fill="#2E2E2E"/>
<path d="M72.9308 53.6829L58.9863 74.7208H72.9308V53.6829ZM44.0444 86.9755V75.5482L70.2693 38.1128H86.1243V74.7208H92.9314V86.9815H86.1243V97.7493H71.9335V86.9815H44.0444V86.9755Z" fill="#2F2F2F"/>
<path d="M73.1112 53.8509L59.1667 74.8888H73.1112V53.8509ZM44.2249 87.1435V75.7162L70.4497 38.2808H86.3047V74.8888H93.1118V87.1495H86.3047V97.9172H72.1139V87.1495H44.2249V87.1435Z" fill="#303030"/>
<path d="M73.2854 54.0187L59.3409 75.0567H73.2854V54.0187ZM44.405 87.3173V75.89L70.6299 38.4546H86.4849V75.0626H93.292V87.3233H86.4849V98.0911H72.2941V87.3233H44.405V87.3173Z" fill="#313131"/>
<path d="M73.4656 54.1924L59.521 75.2304H73.4656V54.1924ZM44.5852 87.485V76.0577L70.81 38.6223H86.6651V75.2304H93.4721V87.491H86.6651V98.2588H72.4742V87.491H44.5852V87.485Z" fill="#323232"/>
<path d="M73.6457 54.3605L59.7012 75.3984H73.6457V54.3605ZM44.7654 87.6591V76.2318L70.9902 38.7964H86.8453V75.4044H93.6523V87.6651H86.8453V98.4329H72.6544V87.6651H44.7654V87.6591Z" fill="#333333"/>
<path d="M73.8262 54.5342L59.8816 75.5722H73.8262V54.5342ZM44.9458 87.8268V76.3995L71.1706 38.9641H87.0257V75.5722H93.8327V87.8328H87.0257V98.6006H72.8348V87.8328H44.9458V87.8268Z" fill="#343434"/>
<path d="M74.0063 54.7021L60.0618 75.74H74.0063V54.7021ZM45.126 88.0006V76.5734L71.3508 39.1379H87.2059V75.746H94.0129V88.0066H87.2059V98.7744H73.015V88.0066H45.126V88.0006Z" fill="#353535"/>
<path d="M74.1865 54.876L60.242 75.914H74.1865V54.876ZM45.3062 88.1686V76.7413L71.531 39.3059H87.386V75.914H94.1931V88.1746H87.386V98.9424H73.1952V88.1746H45.3062V88.1686Z" fill="#363636"/>
<path d="M74.3667 55.0439L60.4222 76.0818H74.3667V55.0439ZM45.4863 88.3424V76.9152L71.7112 39.4797H87.5662V76.0878H94.3733V88.3484H87.5662V99.1162H73.3754V88.3484H45.4863V88.3424Z" fill="#373737"/>
<path d="M74.5471 55.2178L60.6026 76.2558H74.5471V55.2178ZM45.6667 88.5104V77.0831L71.8916 39.6477H87.7466V76.2558H94.5537V88.5164H87.7466V99.2842H73.5558V88.5164H45.6667V88.5104Z" fill="#383838"/>
<path d="M74.7272 55.3855L60.7827 76.4235H74.7272V55.3855ZM45.8408 88.6781V77.2509L72.0656 39.8154H87.9207V76.4235H94.7277V88.6841H87.9207V99.4519H73.7299V88.6841H45.8408V88.6781Z" fill="#393939"/>
<path d="M74.9076 55.5534L60.9631 76.5913H74.9076V55.5534ZM46.0212 88.852V77.4247L72.2461 39.9893H88.1011V76.5973H94.9082V88.858H88.1011V99.6257H73.9103V88.852H46.0212Z" fill="#3A3A3A"/>
<path d="M75.0878 55.7273L61.1433 76.7653H75.0878V55.7273ZM46.2014 89.0199V77.5927L72.4262 40.1572H88.2813V76.7653H95.0883V89.0259H88.2813V99.7937H74.0905V89.0259H46.2014V89.0199Z" fill="#3B3B3B"/>
<path d="M75.268 55.8953L61.3234 76.9333H75.268V55.8953ZM46.3816 89.1939V77.7606L72.6064 40.3252H88.4615V76.9333H95.2685V89.1939H88.4615V99.9617H74.2706V89.1939H46.3816Z" fill="#3C3C3C"/>
<path d="M75.4481 56.0691L61.5036 77.1071H75.4481V56.0691ZM46.5618 89.3617V77.9345L72.7866 40.499H88.6417V77.1071H95.4487V89.3677H88.6417V100.136H74.4508V89.3677H46.5618V89.3617Z" fill="#3D3D3D"/>
<path d="M75.6285 56.237L61.684 77.2749H75.6285V56.237ZM46.7422 89.5356V78.1083L72.967 40.6729H88.8221V77.2809H95.6291V89.5416H88.8221V100.309H74.6312V89.5416H46.7422V89.5356Z" fill="#3E3E3E"/>
<path d="M75.8087 56.4109L61.8642 77.4489H75.8087V56.4109ZM46.9224 89.7035V78.2762L73.1472 40.8408H89.0023V77.4489H95.8093V89.7095H89.0023V100.477H74.8114V89.7095H46.9224V89.7035Z" fill="#3F3F3F"/>
<path d="M75.9829 56.5788L62.0384 77.6167H75.9829V56.5788ZM47.1025 89.8774V78.4501L73.3274 41.0146H89.1824V77.6227H95.9895V89.8833H89.1824V100.651H74.9916V89.8833H47.1025V89.8774Z" fill="#404040"/>
<path d="M76.1631 56.7525L62.2186 77.7904H76.1631V56.7525ZM47.2827 90.0451V78.6178L73.5075 41.1824H89.3626V77.7904H96.1696V90.0511H89.3626V100.819H75.1718V90.0511H47.2827V90.0451Z" fill="#414141"/>
<path d="M76.3435 56.9205L62.399 77.9584H76.3435V56.9205ZM47.4631 90.213V78.7858L73.688 41.3503H89.543V77.9584H96.3501V90.219H89.543V100.987H75.3522V90.219H47.4631V90.213Z" fill="#424242"/>
<path d="M76.5237 57.0883L62.5791 78.1262H76.5237V57.0883ZM47.6433 90.3869V78.9596L73.8681 41.5242H89.7232V78.1322H96.5302V90.3929H89.7232V101.161H75.5324V90.3929H47.6433V90.3869Z" fill="#434343"/>
<path d="M76.7038 57.2623L62.7593 78.3002H76.7038V57.2623ZM47.8235 90.5548V79.1276L74.0483 41.6921H89.9034V78.3002H96.7104V90.5608H89.9034V101.323H75.7125V90.5548H47.8235Z" fill="#444444"/>
<path d="M76.8843 57.4301L62.9397 78.468H76.8843V57.4301ZM48.0039 90.7287V79.3014L74.2287 41.866H90.0838V78.474H96.8908V90.7347H90.0838V101.502H75.8929V90.7347H48.0039V90.7287Z" fill="#454545"/>
<path d="M77.0644 57.6038L63.1199 78.6417H77.0644V57.6038ZM48.1841 90.8964V79.4691L74.4089 42.0337H90.264V78.6417H97.071V90.9024H90.264V101.67H76.0731V90.9024H48.1841V90.8964Z" fill="#464646"/>
<path d="M77.2445 57.7719L63.3 78.8098H77.2445V57.7719ZM48.3582 91.0705V79.6432L74.583 42.2078H90.438V78.8158H97.2451V91.0765H90.438V101.844H76.2472V91.0705H48.3582Z" fill="#474747"/>
<path d="M77.4249 57.9456L63.4804 78.9835H77.4249V57.9456ZM48.5386 91.2382V79.8109L74.7634 42.3755H90.6185V78.9835H97.4255V91.2442H90.6185V102.012H76.4276V91.2442H48.5386V91.2382Z" fill="#484848"/>
<path d="M77.6051 58.1136L63.6606 79.1515H77.6051V58.1136ZM48.7188 91.4122V79.9789L74.9436 42.5435H90.7986V79.1515H97.6057V91.4122H90.7986V102.18H76.6078V91.4122H48.7188Z" fill="#494949"/>
<path d="M77.7853 58.2874L63.8408 79.3253H77.7853V58.2874ZM48.8989 91.58V80.1527L75.1238 42.7173H90.9788V79.3253H97.7859V91.586H90.9788V102.354H76.788V91.586H48.8989V91.58Z" fill="#4A4A4A"/>
<path d="M77.9655 58.4554L64.0209 79.4933H77.9655V58.4554ZM49.0791 91.748V80.3207L75.3039 42.8853H91.159V79.4933H97.966V91.7539H91.159V102.522H76.9681V91.7539H49.0791V91.748Z" fill="#4B4B4B"/>
<path d="M78.1459 58.6232L64.2014 79.6611H78.1459V58.6232ZM49.2595 91.9218V80.4945L75.4844 43.0591H91.3394V79.6671H98.1465V91.9278H91.3394V102.696H77.1486V91.9278H49.2595V91.9218Z" fill="#4C4C4C"/>
<path d="M78.3261 58.7969L64.3815 79.8349H78.3261V58.7969ZM49.4397 92.0895V80.6622L75.6645 43.2268H91.5196V79.8349H98.3266V92.0955H91.5196V102.863H77.3287V92.0895H49.4397Z" fill="#4D4D4D"/>
<path d="M78.5002 58.965L64.5557 80.0029H78.5002V58.965ZM49.6199 92.2636V80.8363L75.8447 43.4009H91.6998V80.0089H98.5068V92.2696H91.6998V103.037H77.5089V92.2696H49.6199V92.2636Z" fill="#4E4E4E"/>
<path d="M78.6807 59.1387L64.7361 80.1767H78.6807V59.1387ZM49.8003 92.4313V81.004L76.0251 43.5686H91.8802V80.1767H98.6872V92.4373H91.8802V103.205H77.6893V92.4373H49.8003V92.4313Z" fill="#4F4F4F"/>
<path d="M78.8608 59.3066L64.9163 80.3445H78.8608V59.3066ZM49.9805 92.6051V81.1779L76.2053 43.7424H92.0604V80.3505H98.8674V92.6111H92.0604V103.379H77.8695V92.6111H49.9805V92.6051Z" fill="#505050"/>
<path d="M79.041 59.4805L65.0965 80.5185H79.041V59.4805ZM50.1606 92.7731V81.3458L76.3855 43.9104H92.2405V80.5185H99.0476V92.7791H92.2405V103.547H78.0437V92.7791H50.1606V92.7731Z" fill="#515151"/>
<path d="M79.2212 59.6483L65.2767 80.6863H79.2212V59.6483ZM50.3408 92.9469V81.5197L76.5657 44.0842H92.4207V80.6923H99.2278V92.9529H92.4207V103.721H78.2239V92.9529H50.3408V92.9469Z" fill="#525252"/>
<path d="M79.4016 59.8223L65.4571 80.8603H79.4016V59.8223ZM50.5212 93.1149V81.6876L76.7461 44.2522H92.6011V80.8603H99.4082V93.1209H92.6011V103.889H78.4043V93.1209H50.5212V93.1149Z" fill="#535353"/>
<path d="M79.5818 59.99L65.6373 81.028H79.5818V59.99ZM50.7014 93.2826V81.8554L76.9262 44.4199H92.7813V81.028H99.5883V93.2886H92.7813V104.056H78.5845V93.2886H50.7014V93.2826Z" fill="#545454"/>
<path d="M79.7619 60.1579L65.8174 81.1958H79.7619V60.1579ZM50.8816 93.4565V82.0292L77.1064 44.5938H92.9615V81.2018H99.7685V93.4624H92.9615V104.23H78.7646V93.4624H50.8816V93.4565Z" fill="#555555"/>
<path d="M79.9423 60.3318L65.9978 81.3698H79.9423V60.3318ZM51.0559 93.6244V82.1971L77.2807 44.7617H93.1358V81.3698H99.9428V93.6304H93.1358V104.398H78.9449V93.6304H51.0559V93.6244Z" fill="#565656"/>
<path d="M80.1224 60.4997L66.1779 81.5376H80.1224V60.4997ZM51.2361 93.7982V82.371L77.4609 44.9355H93.316V81.5376H100.123V93.7982H93.316V104.566H79.1251V93.7982H51.2361Z" fill="#575757"/>
<path d="M80.3026 60.6736L66.3581 81.7116H80.3026V60.6736ZM51.4163 93.9662V82.5389L77.6411 45.1035H93.4961V81.7116H100.303V93.9722H93.4961V104.74H79.3053V93.9722H51.4163V93.9662Z" fill="#585858"/>
<path d="M80.4831 60.8415L66.5385 81.8794H80.4831V60.8415ZM51.5967 94.14V82.7128L77.8215 45.2773H93.6766V81.8854H100.484V94.146H93.6766V104.914H79.4857V94.146H51.5967V94.14Z" fill="#595959"/>
<path d="M80.6632 61.0154L66.7187 82.0534H80.6632V61.0154ZM51.7769 94.308V82.8807L78.0017 45.4453H93.8567V82.0534H100.664V94.314H93.8567V105.082H79.6659V94.308H51.7769Z" fill="#5A5A5A"/>
<path d="M80.8434 61.1833L66.8989 82.2212H80.8434V61.1833ZM51.957 94.4818V83.0546L78.1819 45.6191H94.0369V82.2272H100.844V94.4878H94.0369V105.256H79.8461V94.4878H51.957V94.4818Z" fill="#5B5B5B"/>
<path d="M81.0236 61.357L67.0791 82.3949H81.0236V61.357ZM52.1372 94.6496V83.2223L78.362 45.7869H94.2171V82.3949H101.024V94.6556H94.2171V105.423H80.0262V94.6556H52.1372V94.6496Z" fill="#5C5C5C"/>
<path d="M81.198 61.525L67.2535 82.5629H81.198V61.525ZM52.3176 94.8175V83.3903L78.5425 45.9548H94.3975V82.5629H101.205V94.8235H94.3975V105.591H80.2067V94.8235H52.3176V94.8175Z" fill="#5D5D5D"/>
<path d="M81.3782 61.6988L67.4336 82.7367H81.3782V61.6988ZM52.4978 94.9914V83.5641L78.7226 46.1287H94.5777V82.7367H101.385V94.9974H94.5777V105.765H80.3868V94.9974H52.4978V94.9914Z" fill="#5E5E5E"/>
<path d="M81.5583 61.8667L67.6138 82.9047H81.5583V61.8667ZM52.678 95.1593V83.7321L78.9028 46.2966H94.7579V82.9047H101.565V95.1653H94.7579V105.933H80.567V95.1653H52.678V95.1593Z" fill="#5F5F5F"/>
<path d="M81.7385 62.0346L67.794 83.0725H81.7385V62.0346ZM52.8582 95.3332V83.9059L79.083 46.4705H94.938V83.0785H101.745V95.3392H94.938V106.107H80.7472V95.3392H52.8582V95.3332Z" fill="#606060"/>
<path d="M81.9189 62.2083L67.9744 83.2462H81.9189V62.2083ZM53.0386 95.5009V84.0736L79.2634 46.6382H95.1185V83.2462H101.925V95.5069H95.1185V106.275H80.9276V95.5069H53.0386V95.5009Z" fill="#616161"/>
<path d="M82.0991 62.3764L68.1546 83.4143H82.0991V62.3764ZM53.2188 95.675V84.2477L79.4436 46.8123H95.2986V83.4203H102.106V95.681H95.2986V106.449H81.1078V95.681H53.2188V95.675Z" fill="#626262"/>
<path d="M82.2793 62.5501L68.3348 83.588H82.2793V62.5501ZM53.3989 95.8427V84.4154L79.6238 46.98H95.4788V83.588H102.286V95.8487H95.4788V106.616H81.288V95.8487H53.3989V95.8427Z" fill="#636363"/>
<path d="M82.4596 62.7179L68.5151 83.7559H82.4596V62.7179ZM53.5732 96.0165V84.5892L79.7981 47.1538H95.6531V83.7619H102.46V96.0225H95.6531V106.79H81.4623V96.0225H53.5732V96.0165Z" fill="#646464"/>
<path d="M82.6398 62.8919L68.6953 83.9298H82.6398V62.8919ZM53.7534 96.1845V84.7572L79.9782 47.3218H95.8333V83.9298H102.64V96.1905H95.8333V106.958H81.6425V96.1905H53.7534V96.1845Z" fill="#656565"/>
<path d="M82.82 63.0599L68.8754 84.0978H82.82V63.0599ZM53.9336 96.3525V84.9252L80.1584 47.4897H96.0135V84.0978H102.821V96.3584H96.0135V107.126H81.8226V96.3584H53.9336V96.3525Z" fill="#666666"/>
<path d="M83.0004 63.2337L69.0559 84.2716H83.0004V63.2337ZM54.114 96.5263V85.099L80.3388 47.6636H96.1939V84.2716H103.001V96.5263H96.1939V107.294H82.0031V96.5263H54.114Z" fill="#676767"/>
<path d="M83.1806 63.4014L69.236 84.4394H83.1806V63.4014ZM54.2942 96.694V85.2667L80.519 47.8313H96.3741V84.4394H103.181V96.7H96.3741V107.468H82.1832V96.7H54.2942V96.694Z" fill="#686868"/>
<path d="M83.3607 63.5694L69.4162 84.6073H83.3607V63.5694ZM54.4744 96.868V85.4347L80.6992 47.9993H96.5543V84.6073H103.361V96.868H96.5543V107.636H82.3634V96.868H54.4744Z" fill="#696969"/>
<path d="M83.5409 63.7432L69.5964 84.7812H83.5409V63.7432ZM54.6545 97.0358V85.6085L80.8794 48.1731H96.7344V84.7812H103.541V97.0418H96.7344V107.81H82.5436V97.0418H54.6545V97.0358Z" fill="#6A6A6A"/>
<path d="M83.7213 63.911L69.7768 84.949H83.7213V63.911ZM54.835 97.2096V85.7824L81.0598 48.3469H96.9148V84.955H103.722V97.2156H96.9148V107.983H82.724V97.2156H54.835V97.2096Z" fill="#6B6B6B"/>
<path d="M83.8955 64.085L69.951 85.1229H83.8955V64.085ZM55.0151 97.3776V85.9503L81.24 48.5149H97.095V85.1229H103.902V97.3836H97.095V108.151H82.9042V97.3836H55.0151V97.3776Z" fill="#6C6C6C"/>
<path d="M84.0757 64.2528L70.1312 85.2908H84.0757V64.2528ZM55.1953 97.5514V86.1241L81.4201 48.6887H97.2752V85.2968H104.082V97.5574H97.2752V108.325H83.0843V97.5574H55.1953V97.5514Z" fill="#6D6D6D"/>
<path d="M84.2558 64.4268L70.3113 85.4647H84.2558V64.4268ZM55.3755 97.7194V86.2921L81.6003 48.8567H97.4554V85.4647H104.262V97.7254H97.4554V108.493H83.2645V97.7254H55.3755V97.7194Z" fill="#6E6E6E"/>
<path d="M84.4363 64.5946L70.4917 85.6326H84.4363V64.5946ZM55.5559 97.8932V86.4659L81.7807 49.0305H97.6358V85.6386H104.443V97.8992H97.6358V108.667H83.4449V97.8992H55.5559V97.8932Z" fill="#6F6F6F"/>
<path d="M84.6164 64.7684L70.6719 85.8063H84.6164V64.7684ZM55.7361 98.0609V86.6337L81.9609 49.1982H97.816V85.8063H104.623V98.0669H97.816V108.835H83.6251V98.0669H55.7361V98.0609Z" fill="#707070"/>
<path d="M84.7966 64.9363L70.8521 85.9743H84.7966V64.9363ZM55.9163 98.2289V86.8016L82.1411 49.3662H97.9961V85.9743H104.803V98.2349H97.9961V109.003H83.8053V98.2349H55.9163V98.2289Z" fill="#717171"/>
<path d="M84.9768 65.1042L71.0323 86.1421H84.9768V65.1042ZM56.0964 98.4027V86.9755L82.3213 49.54H98.1763V86.1481H104.983V98.4087H98.1763V109.177H83.9855V98.4087H56.0964V98.4027Z" fill="#727272"/>
<path d="M85.1571 65.2781L71.2126 86.3161H85.1571V65.2781ZM56.2708 98.5707V87.1434L82.4956 49.708H98.3506V86.3161H105.158V98.5767H98.3506V109.344H84.1598V98.5767H56.2708V98.5707Z" fill="#737373"/>
<path d="M85.3373 65.446L71.3928 86.4839H85.3373V65.446ZM56.4509 98.7445V87.3173L82.6758 49.8818H98.5308V86.4899H105.338V98.7505H98.5308V109.518H84.34V98.7445H56.4509Z" fill="#747474"/>
<path d="M85.5177 65.6199L71.5732 86.6579H85.5177V65.6199ZM56.6313 98.9125V87.4852L82.8562 50.0498H98.7112V86.6579H105.518V98.9185H98.7112V109.686H84.5204V98.9185H56.6313V98.9125Z" fill="#757575"/>
<path d="M85.6979 65.7876L71.7534 86.8256H85.6979V65.7876ZM56.8115 99.0862V87.653L83.0364 50.2175H98.8914V86.8256H105.698V99.0862H98.8914V109.854H84.7006V99.0862H56.8115Z" fill="#767676"/>
<path d="M85.8781 65.9615L71.9335 86.9994H85.8781V65.9615ZM56.9917 99.2541V87.8268L83.2165 50.3914H99.0716V86.9994H105.879V99.2601H99.0716V110.028H84.8807V99.2601H56.9917V99.2541Z" fill="#777777"/>
<path d="M86.0582 66.1293L72.1137 87.1672H86.0582V66.1293ZM57.1719 99.4279V88.0006L83.3967 50.5652H99.2518V87.1732H106.059V99.4339H99.2518V110.202H85.0609V99.4339H57.1719V99.4279Z" fill="#787878"/>
<path d="M86.2387 66.3033L72.2941 87.3412H86.2387V66.3033ZM57.3523 99.5959V88.1686L83.5771 50.7332H99.4322V87.3412H106.239V99.6019H99.4322V110.37H85.2413V99.6019H57.3523V99.5959Z" fill="#797979"/>
<path d="M86.4128 66.4712L72.4683 87.5092H86.4128V66.4712ZM57.5325 99.7638V88.3365L83.7573 50.9011H99.6124V87.5092H106.419V99.7698H99.6124V110.538H85.4215V99.7638H57.5325Z" fill="#7A7A7A"/>
<path d="M86.593 66.6391L72.6485 87.677H86.593V66.6391ZM57.7126 99.9377V88.5104L83.9375 51.075H99.7925V87.683H106.6V99.9436H99.7925V110.711H85.6017V99.9436H57.7126V99.9377Z" fill="#7B7B7B"/>
<path d="M86.7732 66.8128L72.8287 87.8507H86.7732V66.8128ZM57.8928 100.105V88.6781L84.1176 51.2427H99.9727V87.8507H106.78V100.111H99.9727V110.879H85.7819V100.111H57.8928V100.105Z" fill="#7C7C7C"/>
<path d="M86.9536 66.9809L73.0091 88.0188H86.9536V66.9809ZM58.0732 100.279V88.8522L84.2981 51.4167H100.153V88.0248H106.96V100.285H100.153V111.053H85.9623V100.285H58.0732V100.279Z" fill="#7D7D7D"/>
<path d="M87.1338 67.1546L73.1893 88.1925H87.1338V67.1546ZM58.2534 100.447V89.0199L84.4782 51.5845H100.333V88.1925H107.14V100.453H100.333V111.221H86.1425V100.453H58.2534V100.447Z" fill="#7E7E7E"/>
<path d="M87.314 67.3224L73.3694 88.3604H87.314V67.3224ZM58.4336 100.621V89.1937L84.6584 51.7583H100.513V88.3664H107.321V100.627H100.513V111.395H86.3226V100.627H58.4336V100.621Z" fill="#7F7F7F"/>
<path d="M87.4941 67.4964L73.5496 88.5343H87.4941V67.4964ZM58.6138 100.789V89.3617L84.8386 51.9263H100.694V88.5343H107.501V100.795H100.694V111.563H86.5028V100.795H58.6138V100.789Z" fill="#808080"/>
<path d="M87.6745 67.6642L73.73 88.7022H87.6745V67.6642ZM58.7942 100.963V89.5355L85.019 52.1001H100.874V88.7082H107.681V100.969H100.874V111.737H86.6832V100.963H58.7942Z" fill="#818181"/>
<path d="M87.8546 67.8382L73.9101 88.8761H87.8546V67.8382ZM58.9683 101.131V89.7035L85.1931 52.2681H101.048V88.8761H107.855V101.137H101.048V111.905H86.8573V101.137H58.9683V101.131Z" fill="#828282"/>
<path d="M88.035 68.0059L74.0905 89.0438H88.035V68.0059ZM59.1487 101.299V89.8712L85.3735 52.4358H101.229V89.0438H108.036V101.304H101.229V112.072H87.0377V101.304H59.1487V101.299Z" fill="#838383"/>
<path d="M88.2152 68.1737L74.2707 89.2117H88.2152V68.1737ZM59.3289 101.472V90.045L85.5537 52.6096H101.409V89.2177H108.216V101.478H101.409V112.246H87.2179V101.478H59.3289V101.472Z" fill="#848484"/>
<path d="M88.3954 68.3477L74.4509 89.3856H88.3954V68.3477ZM59.509 101.64V90.213L85.7339 52.7776H101.589V89.3856H108.396V101.646H101.589V112.414H87.3981V101.646H59.509V101.64Z" fill="#858585"/>
<path d="M88.5756 68.5155L74.6311 89.5535H88.5756V68.5155ZM59.6892 101.814V90.3868L85.914 52.9514H101.769V89.5595H108.576V101.82H101.769V112.588H87.5783V101.82H59.6892V101.814Z" fill="#868686"/>
<path d="M88.756 68.6895L74.8115 89.7274H88.756V68.6895ZM59.8696 101.982V90.5548L86.0945 53.1194H101.95V89.7274H108.757V101.988H101.95V112.756H87.7587V101.982H59.8696Z" fill="#878787"/>
<path d="M88.9362 68.8573L74.9916 89.8953H88.9362V68.8573ZM60.0498 102.156V90.7286L86.2746 53.2932H102.13V89.9013H108.937V102.162H102.13V112.93H87.9388V102.162H60.0498V102.156Z" fill="#888888"/>
<path d="M89.1103 69.0313L75.1658 90.0692H89.1103V69.0313ZM60.23 102.324V90.8966L86.4548 53.4612H102.31V90.0692H109.117V102.33H102.31V113.098H88.119V102.33H60.23V102.324Z" fill="#898989"/>
<path d="M89.2905 69.1991L75.346 90.2371H89.2905V69.1991ZM60.4102 102.498V91.0704L86.635 53.635H102.49V90.2431H109.297V102.504H102.49V113.271H88.2992V102.504H60.4102V102.498Z" fill="#8A8A8A"/>
<path d="M89.4709 69.3728L75.5264 90.4108H89.4709V69.3728ZM60.5906 102.665V91.2382L86.8154 53.8027H102.67V90.4108H109.478V102.671H102.67V113.439H88.4796V102.671H60.5906V102.665Z" fill="#8B8B8B"/>
<path d="M89.6511 69.5408L75.7066 90.5788H89.6511V69.5408ZM60.7708 102.833V91.4061L86.9956 53.9707H102.851V90.5788H109.658V102.839H102.851V113.607H88.6598V102.839H60.7708V102.833Z" fill="#8C8C8C"/>
<path d="M89.8313 69.7088L75.8868 90.7467H89.8313V69.7088ZM60.9509 103.007V91.5801L87.1758 54.1387H103.031V90.7467H109.838V103.007H103.031V113.775H88.84V103.007H60.9509Z" fill="#8D8D8D"/>
<path d="M90.0117 69.8826L76.0672 90.9206H90.0117V69.8826ZM61.1313 103.175V91.7479L87.3562 54.3125H103.211V90.9206H110.018V103.181H103.211V113.949H89.0204V103.181H61.1313V103.175Z" fill="#8E8E8E"/>
<path d="M90.1919 70.0504L76.2474 91.0884H90.1919V70.0504ZM61.3115 103.349V91.9218L87.5364 54.4863H103.391V91.0944H110.198V103.355H103.391V114.123H89.2006V103.355H61.3115V103.349Z" fill="#8F8F8F"/>
<path d="M90.372 70.2244L76.4274 91.2624H90.372V70.2244ZM61.4856 103.517V92.0897L87.7164 54.6543H103.571V91.2624H110.379V103.523H103.571V114.291H89.3806V103.523H61.4856V103.517Z" fill="#909090"/>
<path d="M90.5524 70.3922L76.6079 91.4302H90.5524V70.3922ZM61.666 103.691V92.2636L87.8908 54.8281H103.746V91.4362H110.553V103.697H103.746V114.465H89.5551V103.697H61.666V103.691Z" fill="#919191"/>
<path d="M90.7326 70.566L76.788 91.6039H90.7326V70.566ZM61.8462 103.859V92.4313L88.071 54.9958H103.926V91.6039H110.733V103.865H103.926V114.632H89.7352V103.865H61.8462V103.859Z" fill="#929292"/>
<path d="M90.9127 70.7338L76.9682 91.7717H90.9127V70.7338ZM62.0264 104.032V92.6051L88.2512 55.1697H104.106V91.7777H110.913V104.038H104.106V114.806H89.9154V104.038H62.0264V104.032Z" fill="#939393"/>
<path d="M91.0929 70.9078L77.1484 91.9457H91.0929V70.9078ZM62.2065 104.2V92.7731L88.4314 55.3376H104.286V91.9457H111.093V104.206H104.286V114.974H90.0956V104.2H62.2065Z" fill="#949494"/>
<path d="M91.2733 71.0757L77.3288 92.1137H91.2733V71.0757ZM62.387 104.368V92.941L88.6118 55.5056H104.467V92.1137H111.274V104.374H104.467V115.142H90.276V104.374H62.387V104.368Z" fill="#959595"/>
<path d="M91.4535 71.2435L77.509 92.2814H91.4535V71.2435ZM62.5671 104.542V93.1088L88.792 55.6733H104.647V92.2814H111.454V104.542H104.647V115.31H90.4562V104.542H62.5671Z" fill="#969696"/>
<path d="M91.6277 71.4173L77.6832 92.4552H91.6277V71.4173ZM62.7473 104.71V93.2826L88.9721 55.8472H104.827V92.4552H111.634V104.716H104.827V115.484H90.6364V104.716H62.7473V104.71Z" fill="#979797"/>
<path d="M91.8081 71.5854L77.8636 92.6233H91.8081V71.5854ZM62.9277 104.884V93.4567L89.1526 56.0212H105.008V92.6293H111.815V104.89H105.008V115.658H90.8168V104.89H62.9277V104.884Z" fill="#989898"/>
<path d="M91.9883 71.7591L78.0437 92.797H91.9883V71.7591ZM63.1079 105.052V93.6244L89.3327 56.189H105.188V92.797H111.995V105.058H105.188V115.825H90.997V105.058H63.1079V105.052Z" fill="#999999"/>
<path d="M92.1684 71.927L78.2239 92.965H92.1684V71.927ZM63.2881 105.226V93.7984L89.5129 56.3569H105.368V92.965H112.175V105.226H105.368V115.993H91.1771V105.226H63.2881Z" fill="#9A9A9A"/>
<path d="M92.3486 72.1009L78.4041 93.1388H92.3486V72.1009ZM63.4683 105.393V93.9662L89.6931 56.5308H105.548V93.1388H112.355V105.399H105.548V116.167H91.3573V105.399H63.4683V105.393Z" fill="#9B9B9B"/>
<path d="M92.529 72.2687L78.5845 93.3067H92.529V72.2687ZM63.6487 105.567V94.14L89.8735 56.7046H105.729V93.3126H112.536V105.573H105.729V116.341H91.5377V105.573H63.6487V105.567Z" fill="#9C9C9C"/>
<path d="M92.7092 72.4427L78.7647 93.4806H92.7092V72.4427ZM63.8289 105.735V94.308L90.0537 56.8726H105.909V93.4806H112.716V105.741H105.909V116.509H91.7179V105.741H63.8289V105.735Z" fill="#9D9D9D"/>
<path d="M92.8894 72.6104L78.9449 93.6483H92.8894V72.6104ZM64.009 105.903V94.4757L90.2339 57.0403H106.089V93.6483H112.896V105.909H106.089V116.677H91.8981V105.909H64.009V105.903Z" fill="#9E9E9E"/>
<path d="M93.0697 72.7782L79.1252 93.8162H93.0697V72.7782ZM64.1833 106.077V94.6495L90.4082 57.2141H106.263V93.8222H113.07V106.083H106.263V116.851H92.0724V106.083H64.1833V106.077Z" fill="#9F9F9F"/>
<path d="M93.2499 72.9522L79.3054 93.9901H93.2499V72.9522ZM64.3635 106.245V94.8175L90.5884 57.3821H106.443V93.9901H113.25V106.251H106.443V117.019H92.2526V106.251H64.3635V106.245Z" fill="#A0A0A0"/>
<path d="M93.4301 73.12L79.4855 94.158H93.4301V73.12ZM64.5437 106.419V94.9913L90.7685 57.5559H106.624V94.164H113.431V106.425H106.624V117.192H92.4327V106.419H64.5437Z" fill="#A1A1A1"/>
<path d="M93.6105 73.294L79.666 94.3319H93.6105V73.294ZM64.7241 106.587V95.1593L90.949 57.7239H106.804V94.3319H113.611V106.593H106.804V117.36H92.6132V106.593H64.7241V106.587Z" fill="#A2A2A2"/>
<path d="M93.7907 73.4617L79.8461 94.4997H93.7907V73.4617ZM64.9043 106.76V95.327L91.1291 57.8916H106.984V94.4997H113.791V106.76H106.984V117.528H92.7933V106.76H64.9043Z" fill="#A3A3A3"/>
<path d="M93.9708 73.6358L80.0263 94.6737H93.9708V73.6358ZM65.0845 106.928V95.5011L91.3093 58.0657H107.164V94.6737H113.971V106.934H107.164V117.702H92.9735V106.934H65.0845V106.928Z" fill="#A4A4A4"/>
<path d="M94.151 73.8036L80.2065 94.8416H94.151V73.8036ZM65.2646 107.102V95.6749L91.4895 58.2395H107.345V94.8476H114.152V107.108H107.345V117.876H93.1537V107.108H65.2646V107.102Z" fill="#A5A5A5"/>
<path d="M94.3254 73.9773L80.3809 95.0153H94.3254V73.9773ZM65.4451 107.27V95.8427L91.6699 58.4072H107.525V95.0153H114.332V107.276H107.525V118.044H93.3341V107.276H65.4451V107.27Z" fill="#A6A6A6"/>
<path d="M94.5056 74.1453L80.5611 95.1833H94.5056V74.1453ZM65.6252 107.438V96.0106L91.8501 58.5752H107.705V95.1833H114.512V107.444H107.705V118.212H93.5143V107.438H65.6252Z" fill="#A7A7A7"/>
<path d="M94.6858 74.3131L80.7413 95.3511H94.6858V74.3131ZM65.8054 107.612V96.1844L92.0302 58.749H107.885V95.3571H114.692V107.618H107.885V118.386H93.6945V107.618H65.8054V107.612Z" fill="#A8A8A8"/>
<path d="M94.8659 74.4871L80.9214 95.5251H94.8659V74.4871ZM65.9856 107.78V96.3524L92.2104 58.917H108.065V95.5251H114.873V107.786H108.065V118.553H93.8746V107.786H65.9856V107.78Z" fill="#A9A9A9"/>
<path d="M95.0464 74.6549L81.1019 95.6929H95.0464V74.6549ZM66.166 107.954V96.5262L92.3908 59.0908H108.246V95.6989H115.053V107.96H108.246V118.727H94.0551V107.96H66.166V107.954Z" fill="#AAAAAA"/>
<path d="M95.2265 74.8287L81.282 95.8666H95.2265V74.8287ZM66.3462 108.121V96.694L92.571 59.2585H108.426V95.8666H115.233V108.127H108.426V118.895H94.2352V108.127H66.3462V108.121Z" fill="#ABABAB"/>
<path d="M95.4067 74.9967L81.4622 96.0347H95.4067V74.9967ZM66.5264 108.295V96.868L92.7512 59.4326H108.606V96.0407H115.413V108.301H108.606V119.069H94.4154V108.301H66.5264V108.295Z" fill="#ACACAC"/>
<path d="M95.5869 75.1705L81.6424 96.2084H95.5869V75.1705ZM66.7065 108.463V97.0358L92.9314 59.6003H108.786V96.2084H115.593V108.469H108.786V119.237H94.5956V108.469H66.7065V108.463Z" fill="#ADADAD"/>
<path d="M95.7672 75.3383L81.8227 96.3762H95.7672V75.3383ZM66.8809 108.637V97.2096L93.1057 59.7742H108.961V96.3822H115.768V108.643H108.961V119.411H94.7699V108.637H66.8809Z" fill="#AEAEAE"/>
<path d="M95.9474 75.5122L82.0029 96.5502H95.9474V75.5122ZM67.061 108.805V97.3776L93.2859 59.9421H109.141V96.5502H115.948V108.811H109.141V119.579H94.9501V108.811H67.061V108.805Z" fill="#AFAFAF"/>
<path d="M96.1278 75.6802L82.1833 96.7182H96.1278V75.6802ZM67.2415 108.973V97.5455L93.4663 60.1101H109.321V96.7182H116.128V108.979H109.321V119.747H95.1305V108.979H67.2415V108.973Z" fill="#B0B0B0"/>
<path d="M96.308 75.8481L82.3635 96.886H96.308V75.8481ZM67.4216 109.147V97.7194L93.6465 60.2839H109.502V96.892H116.309V109.153H109.502V119.92H95.3107V109.153H67.4216V109.147Z" fill="#B1B1B1"/>
<path d="M96.4882 76.0218L82.5437 97.0597H96.4882V76.0218ZM67.6018 109.314V97.8871L93.8266 60.4517H109.682V97.0597H116.489V109.32H109.682V120.088H95.4909V109.32H67.6018V109.314Z" fill="#B2B2B2"/>
<path d="M96.6683 76.1899L82.7238 97.2278H96.6683V76.1899ZM67.782 109.488V98.0612L94.0068 60.6257H109.862V97.2338H116.669V109.494H109.862V120.262H95.671V109.494H67.782V109.488Z" fill="#B3B3B3"/>
<path d="M96.8488 76.3636L82.9042 97.4015H96.8488V76.3636ZM67.9624 109.656V98.2289L94.1872 60.7935H110.042V97.4015H116.849V109.662H110.042V120.43H95.8514V109.656H67.9624Z" fill="#B4B4B4"/>
<path d="M97.0229 76.5314L83.0784 97.5693H97.0229V76.5314ZM68.1426 109.83V98.4027L94.3674 60.9673H110.222V97.5753H117.03V109.836H110.222V120.604H96.0316V109.836H68.1426V109.83Z" fill="#B5B5B5"/>
<path d="M97.2031 76.7054L83.2586 97.7433H97.2031V76.7054ZM68.3228 109.998V98.5707L94.5476 61.1353H110.403V97.7433H117.21V110.004H110.403V120.772H96.2118V110.004H68.3228V109.998Z" fill="#B6B6B6"/>
<path d="M97.3833 76.8732L83.4388 97.9111H97.3833V76.8732ZM68.5029 110.172V98.7445L94.7278 61.3091H110.583V97.9171H117.39V110.178H110.583V120.946H96.392V110.178H68.5029V110.172Z" fill="#B7B7B7"/>
<path d="M97.5637 77.0472L83.6192 98.0851H97.5637V77.0472ZM68.6833 110.34V98.9125L94.9082 61.4771H110.763V98.0851H117.57V110.346H110.763V121.108H96.5724V110.34H68.6833Z" fill="#B8B8B8"/>
<path d="M97.7439 77.2149L83.7994 98.2528H97.7439V77.2149ZM68.8635 110.507V99.0802L95.0884 61.6448H110.943V98.2528H117.75V110.513H110.943V121.281H96.7526V110.513H68.8635V110.507Z" fill="#B9B9B9"/>
<path d="M97.9241 77.3827L83.9795 98.4207H97.9241V77.3827ZM69.0437 110.681V99.254L95.2685 61.8186H111.124V98.4267H117.931V110.687H111.124V121.455H96.9327V110.687H69.0437V110.681Z" fill="#BABABA"/>
<path d="M98.1042 77.5567L84.1597 98.5946H98.1042V77.5567ZM69.2239 110.849V99.422L95.4487 61.9866H111.304V98.5946H118.111V110.855H111.304V121.623H97.1129V110.855H69.2239V110.849Z" fill="#BBBBBB"/>
<path d="M98.2846 77.7245L84.34 98.7625H98.2846V77.7245ZM69.3982 111.023V99.5958L95.623 62.1604H111.478V98.7685H118.285V111.029H111.478V121.797H97.2872V111.029H69.3982V111.023Z" fill="#BCBCBC"/>
<path d="M98.4647 77.8985L84.5202 98.9364H98.4647V77.8985ZM69.5784 111.191V99.7638L95.8032 62.3284H111.658V98.9364H118.465V111.197H111.658V121.965H97.4674V111.197H69.5784V111.191Z" fill="#BDBDBD"/>
<path d="M98.6452 78.0663L84.7006 99.1043H98.6452V78.0663ZM69.7588 111.365V99.9376L95.9836 62.5022H111.839V99.1103H118.646V111.371H111.839V122.139H97.6478V111.371H69.7588V111.365Z" fill="#BEBEBE"/>
<path d="M98.8253 78.2403L84.8808 99.2782H98.8253V78.2403ZM69.939 111.533V100.106L96.1638 62.6702H112.019V99.2782H118.826V111.539H112.019V122.307H97.828V111.539H69.939V111.533Z" fill="#BFBFBF"/>
<path d="M99.0055 78.4081L85.061 99.4461H99.0055V78.4081ZM70.1191 111.707V100.279L96.344 62.844H112.199V99.4521H119.006V111.713H112.199V122.48H98.0082V111.713H70.1191V111.707Z" fill="#C0C0C0"/>
<path d="M99.1857 78.5818L85.2412 99.6198H99.1857V78.5818ZM70.2993 111.874V100.447L96.5241 63.0117H112.379V99.6198H119.186V111.88H112.379V122.648H98.1884V111.874H70.2993Z" fill="#C1C1C1"/>
<path d="M99.3661 78.7498L85.4216 99.7877H99.3661V78.7498ZM70.4797 112.042V100.615L96.7046 63.1797H112.56V99.7877H119.367V112.048H112.56V122.816H98.3688V112.048H70.4797V112.042Z" fill="#C2C2C2"/>
<path d="M99.5403 78.9176L85.5957 99.9556H99.5403V78.9176ZM70.6599 112.216V100.789L96.8847 63.3535H112.74V99.9616H119.547V112.222H112.74V122.99H98.549V112.222H70.6599V112.216Z" fill="#C3C3C3"/>
<path d="M99.7204 79.0916L85.7759 100.13H99.7204V79.0916ZM70.8401 112.384V100.957L97.0649 63.5215H112.92V100.13H119.727V112.39H112.92V123.158H98.7291V112.39H70.8401V112.384Z" fill="#C4C4C4"/>
<path d="M99.9006 79.2594L85.9561 100.297H99.9006V79.2594ZM71.0203 112.558V101.131L97.2451 63.6953H113.1V100.303H119.907V112.564H113.1V123.332H98.9093V112.564H71.0203V112.558Z" fill="#C5C5C5"/>
<path d="M100.081 79.4332L86.1365 100.471H100.081V79.4332ZM71.2007 112.726V101.298L97.4255 63.863H113.281V100.471H120.088V112.732H113.281V123.5H99.0897V112.732H71.2007V112.726Z" fill="#C6C6C6"/>
<path d="M100.261 79.6012L86.3167 100.639H100.261V79.6012ZM71.3809 112.9V101.473L97.6057 64.0371H113.461V100.645H120.268V112.906H113.461V123.674H99.2699V112.906H71.3809V112.9Z" fill="#C7C7C7"/>
<path d="M100.441 79.775L86.4969 100.813H100.441V79.775ZM71.561 113.068V101.64L97.7859 64.2048H113.641V100.813H120.448V113.074H113.641V123.841H99.4501V113.074H71.561V113.068Z" fill="#C8C8C8"/>
<path d="M100.622 79.9428L86.677 100.981H100.622V79.9428ZM71.7412 113.241V101.814L97.966 64.3787H113.821V100.987H120.628V113.247H113.821V124.015H99.6303V113.247H71.7412V113.241Z" fill="#C9C9C9"/>
<path d="M100.802 80.1167L86.8575 101.155H100.802V80.1167ZM71.9216 113.409V101.982L98.1465 64.5466H114.002V101.155H120.809V113.415H114.002V124.183H99.8107V113.415H71.9216V113.409Z" fill="#CACACA"/>
<path d="M100.982 80.2847L87.0375 101.323H100.982V80.2847ZM72.0957 113.577V102.15L98.3205 64.7146H114.176V101.323H120.983V113.583H114.176V124.351H99.9847V113.583H72.0957V113.577Z" fill="#CBCBCB"/>
<path d="M101.162 80.4585L87.218 101.496H101.162V80.4585ZM72.2761 113.751V102.324L98.5009 64.8884H114.356V101.496H121.163V113.757H114.356V124.525H100.165V113.757H72.2761V113.751Z" fill="#CCCCCC"/>
<path d="M101.343 80.6263L87.3981 101.664H101.343V80.6263ZM72.4563 113.919V102.492L98.6811 65.0562H114.536V101.664H121.343V113.925H114.536V124.693H100.345V113.925H72.4563V113.919Z" fill="#CDCDCD"/>
<path d="M101.523 80.7943L87.5783 101.832H101.523V80.7943ZM72.6365 114.093V102.666L98.8613 65.2302H114.716V101.838H121.523V114.099H114.716V124.867H100.526V114.093H72.6365Z" fill="#CECECE"/>
<path d="M101.703 80.9681L87.7585 102.006H101.703V80.9681ZM72.8167 114.261V102.833L99.0415 65.3979H114.897V102.006H121.704V114.267H114.897V125.034H100.706V114.267H72.8167V114.261Z" fill="#CFCFCF"/>
<path d="M101.883 81.136L87.9389 102.174H101.883V81.136ZM72.9971 114.435V103.001L99.2219 65.5659H115.077V102.174H121.884V114.435H115.077V125.202H100.886V114.435H72.9971Z" fill="#D0D0D0"/>
<path d="M102.064 81.3099L88.1191 102.348H102.064V81.3099ZM73.1772 114.602V103.175L99.4021 65.7397H115.257V102.348H122.064V114.608H115.257V125.376H101.066V114.608H73.1772V114.602Z" fill="#D1D1D1"/>
<path d="M102.238 81.4777L88.2933 102.516H102.238V81.4777ZM73.3574 114.776V103.349L99.5823 65.9136H115.437V102.522H122.244V114.782H115.437V125.55H101.246V114.782H73.3574V114.776Z" fill="#D2D2D2"/>
<path d="M102.418 81.6517L88.4734 102.69H102.418V81.6517ZM73.5376 114.944V103.517L99.7624 66.0815H115.617V102.69H122.425V114.95H115.617V125.718H101.427V114.95H73.5376V114.944Z" fill="#D3D3D3"/>
<path d="M102.598 81.8194L88.6539 102.857H102.598V81.8194ZM73.718 115.112V103.685L99.9429 66.2493H115.798V102.857H122.605V115.112H115.798V125.88H101.607V115.112H73.718Z" fill="#D4D4D4"/>
<path d="M102.779 81.9932L88.834 103.031H102.779V81.9932ZM73.8982 115.286V103.859L100.123 66.4231H115.978V103.031H122.785V115.292H115.978V126.06H101.787V115.292H73.8982V115.286Z" fill="#D5D5D5"/>
<path d="M102.959 82.1612L89.0142 103.199H102.959V82.1612ZM74.0784 115.454V104.026L100.303 66.5911H116.158V103.199H122.965V115.46H116.158V126.228H101.967V115.46H74.0784V115.454Z" fill="#D6D6D6"/>
<path d="M103.139 82.329L89.1944 103.367H103.139V82.329ZM74.2585 115.628V104.2L100.483 66.7649H116.338V103.373H123.145V115.634H116.338V126.401H102.148V115.634H74.2585V115.628Z" fill="#D7D7D7"/>
<path d="M103.319 82.503L89.3748 103.541H103.319V82.503ZM74.439 115.796V104.368L100.664 66.9329H116.519V103.541H123.326V115.802H116.519V126.569H102.328V115.802H74.439V115.796Z" fill="#D8D8D8"/>
<path d="M103.499 82.6708L89.5549 103.709H103.499V82.6708ZM74.613 115.969V104.542L100.838 67.1067H116.693V103.715H123.5V115.975H116.693V126.743H102.502V115.975H74.613V115.969Z" fill="#D9D9D9"/>
<path d="M103.68 82.8448L89.7353 103.883H103.68V82.8448ZM74.7935 116.137V104.71L101.018 67.2747H116.873V103.883H123.68V116.143H116.873V126.911H102.683V116.143H74.7935V116.137Z" fill="#DADADA"/>
<path d="M103.86 83.0126L89.9155 104.051H103.86V83.0126ZM74.9736 116.311V104.884L101.198 67.4485H117.054V104.057H123.861V116.311H117.054V127.079H102.863V116.311H74.9736Z" fill="#DBDBDB"/>
<path d="M104.04 83.1863L90.0957 104.224H104.04V83.1863ZM75.1538 116.479V105.052L101.379 67.6162H117.234V104.224H124.041V116.485H117.234V127.253H103.043V116.485H75.1538V116.479Z" fill="#DCDCDC"/>
<path d="M104.22 83.3543L90.2758 104.392H104.22V83.3543ZM75.334 116.653V105.22L101.559 67.7842H117.414V104.392H124.221V116.653H117.414V127.421H103.223V116.653H75.334Z" fill="#DDDDDD"/>
<path d="M104.401 83.5281L90.4562 104.566H104.401V83.5281ZM75.5144 116.821V105.393L101.739 67.958H117.594V104.566H124.401V116.827H117.594V127.594H103.403V116.827H75.5144V116.821Z" fill="#DEDEDE"/>
<path d="M104.581 83.6961L90.6364 104.734H104.581V83.6961ZM75.6946 116.989V105.561L101.919 68.126H117.774V104.734H124.582V116.995H117.774V127.762H103.584V116.995H75.6946V116.989Z" fill="#DFDFDF"/>
<path d="M104.761 83.8639L90.8166 104.902H104.761V83.8639ZM75.8748 117.163V105.735L102.1 68.2998H117.955V104.908H124.762V117.168H117.955V127.936H103.764V117.168H75.8748V117.163Z" fill="#E0E0E0"/>
<path d="M104.935 84.0376L90.9908 105.076H104.935V84.0376ZM76.0549 117.33V105.903L102.28 68.4675H118.135V105.076H124.942V117.336H118.135V128.104H103.944V117.33H76.0549Z" fill="#E1E1E1"/>
<path d="M105.116 84.2057L91.1712 105.244H105.116V84.2057ZM76.2354 117.504V106.077L102.46 68.6416H118.315V105.25H125.122V117.51H118.315V128.278H104.124V117.51H76.2354V117.504Z" fill="#E2E2E2"/>
<path d="M105.296 84.3794L91.3514 105.417H105.296V84.3794ZM76.4155 117.672V106.245L102.64 68.8093H118.495V105.417H125.302V117.678H118.495V128.446H104.305V117.678H76.4155V117.672Z" fill="#E3E3E3"/>
<path d="M105.476 84.5473L91.5315 105.585H105.476V84.5473ZM76.5957 117.846V106.419L102.821 68.9832H118.676V105.591H125.483V117.852H118.676V128.62H104.479V117.852H76.5957V117.846Z" fill="#E4E4E4"/>
<path d="M105.656 84.7212L91.712 105.759H105.656V84.7212ZM76.7761 118.014V106.587L103.001 69.1511H118.856V105.759H125.663V118.02H118.856V128.788H104.659V118.02H76.7761V118.014Z" fill="#E5E5E5"/>
<path d="M105.837 84.8891L91.8921 105.927H105.837V84.8891ZM76.9563 118.188V106.76L103.181 69.325H119.036V105.933H125.843V118.194H119.036V128.961H104.839V118.194H76.9563V118.188Z" fill="#E6E6E6"/>
<path d="M106.017 85.063L92.0723 106.101H106.017V85.063ZM77.1365 118.356V106.928L103.361 69.4929H119.216V106.101H126.023V118.362H119.216V129.129H105.02V118.362H77.1365V118.356Z" fill="#E7E7E7"/>
<path d="M106.197 85.2308L92.2526 106.269H106.197V85.2308ZM77.3108 118.523V107.096L103.536 69.6606H119.391V106.269H126.198V118.529H119.391V129.297H105.2V118.529H77.3108V118.523Z" fill="#E8E8E8"/>
<path d="M106.377 85.3986L92.4328 106.437H106.377V85.3986ZM77.491 118.697V107.27L103.716 69.8345H119.571V106.443H126.378V118.703H119.571V129.471H105.38V118.703H77.491V118.697Z" fill="#E9E9E9"/>
<path d="M106.558 85.5726L92.613 106.611H106.558V85.5726ZM77.6711 118.865V107.438L103.896 70.0024H119.751V106.611H126.558V118.871H119.751V129.639H105.56V118.871H77.6711V118.865Z" fill="#EAEAEA"/>
<path d="M106.738 85.7404L92.7932 106.778H106.738V85.7404ZM77.8513 119.039V107.612L104.076 70.1763H119.931V106.784H126.738V119.045H119.931V129.813H105.74V119.045H77.8513V119.039Z" fill="#EBEBEB"/>
<path d="M106.918 85.9144L92.9736 106.952H106.918V85.9144ZM78.0317 119.207V107.78L104.257 70.3442H120.112V106.952H126.919V119.213H120.112V129.981H105.921V119.213H78.0317V119.207Z" fill="#ECECEC"/>
<path d="M107.098 86.0822L93.1538 107.12H107.098V86.0822ZM78.2119 119.381V107.953L104.437 70.5181H120.292V107.126H127.099V119.387H120.292V130.155H106.101V119.387H78.2119V119.381Z" fill="#EDEDED"/>
<path d="M107.278 86.2561L93.3339 107.294H107.278V86.2561ZM78.3921 119.549V108.121L104.617 70.686H120.472V107.294H127.279V119.555H120.472V130.323H106.281V119.549H78.3921Z" fill="#EEEEEE"/>
<path d="M107.453 86.424L93.5083 107.462H107.453V86.424ZM78.5725 119.723V108.295L104.797 70.8599H120.652V107.468H127.459V119.729H120.652V130.496H106.462V119.729H78.5725V119.723Z" fill="#EFEFEF"/>
<path d="M107.633 86.5977L93.6885 107.636H107.633V86.5977ZM78.7527 119.89V108.463L104.978 71.0276H120.833V107.636H127.64V119.896H120.833V130.664H106.642V119.896H78.7527V119.89Z" fill="#F0F0F0"/>
<path d="M107.813 86.7657L93.8687 107.804H107.813V86.7657ZM78.9329 120.058V108.631L105.158 71.1956H121.013V107.804H127.82V120.064H121.013V130.832H106.822V120.064H78.9329V120.058Z" fill="#F1F1F1"/>
<path d="M107.993 86.9335L94.0489 107.971H107.993V86.9335ZM79.113 120.232V108.805L105.338 71.3694H121.193V107.977H128V120.238H121.193V131.006H107.002V120.238H79.113V120.232Z" fill="#F2F2F2"/>
</g>
</g>
<path d="M35.5913 78.9596V67.5323L61.8161 30.0969H77.6712V66.705H84.4782V78.9656H77.6712V89.7334H63.4804V78.9596H35.5913ZM64.4777 45.667L50.5332 66.705H64.4777V45.667Z" fill="black"/>
</svg>
