<svg width="118" height="127" viewBox="0 0 118 127" fill="none" xmlns="http://www.w3.org/2000/svg">
<path d="M58.0302 115.384C90.0794 115.384 116.06 89.5546 116.06 57.6921C116.06 25.8296 90.0794 0 58.0302 0C25.981 0 0 25.8296 0 57.6921C0 89.5546 25.981 115.384 58.0302 115.384Z" fill="#DEBB00"/>
<g opacity="0.25">
<mask id="mask0_79_2036" style="mask-type:luminance" maskUnits="userSpaceOnUse" x="0" y="0" width="117" height="116">
<path d="M58.0302 115.384C90.0794 115.384 116.06 89.5546 116.06 57.6921C116.06 25.8296 90.0794 0 58.0302 0C25.981 0 0 25.8296 0 57.6921C0 89.5546 25.981 115.384 58.0302 115.384Z" fill="white"/>
</mask>
<g mask="url(#mask0_79_2036)">
<path d="M47.02 41.4116V28.8433H69.0405V86.5296H54.8886V41.4116H47.02Z" fill="#1A1A1A"/>
<path d="M47.2465 41.5963V29.0337H69.2669V86.72H55.1151V41.5963H47.2465Z" fill="#1B1B1B"/>
<path d="M47.473 41.7869V29.2185H69.4935V86.9048H55.3416V41.7869H47.473Z" fill="#1C1C1C"/>
<path d="M47.6995 41.9715V29.4089H69.7199V87.0953H55.5681V41.9715H47.6995Z" fill="#1D1D1D"/>
<path d="M47.9259 42.1621V29.5938H69.9464V87.2801H55.7945V42.1621H47.9259Z" fill="#1E1E1E"/>
<path d="M48.1523 42.347V29.7844H70.1728V87.4708H56.0209V42.347H48.1523Z" fill="#1F1F1F"/>
<path d="M48.3789 42.5374V29.969H70.3994V87.6553H56.2475V42.5374H48.3789Z" fill="#202020"/>
<path d="M48.6053 42.7223V30.1597H70.6258V87.846H56.474V42.7223H48.6053Z" fill="#212121"/>
<path d="M48.8318 42.9126V30.3442H70.8523V88.0306H56.7004V42.9126H48.8318Z" fill="#222222"/>
<path d="M49.0583 43.0975V30.5349H71.0788V88.2212H56.9269V43.0975H49.0583Z" fill="#232323"/>
<path d="M49.2848 43.2821V30.7195H71.3053V88.4058H57.1534V43.2821H49.2848Z" fill="#242424"/>
<path d="M49.5112 43.4727V30.9043H71.5317V88.5906H57.3798V43.4727H49.5112Z" fill="#252525"/>
<path d="M49.7378 43.6573V31.0947H71.7583V88.7811H57.6064V43.6573H49.7378Z" fill="#262626"/>
<path d="M49.9642 43.8479V31.2795H71.9847V88.9659H57.8328V43.8479H49.9642Z" fill="#272727"/>
<path d="M50.1907 44.0326V31.47H72.2111V89.1563H58.0651V44.0326H50.1907Z" fill="#282828"/>
<path d="M50.4171 44.2232V31.6548H72.4376V89.3411H58.2857V44.2232H50.4171Z" fill="#292929"/>
<path d="M50.6437 44.4081V31.8455H72.6641V89.5318H58.5123V44.4081H50.6437Z" fill="#2A2A2A"/>
<path d="M50.8701 44.5984V32.03H72.8906V89.7164H58.7387V44.5984H50.8701Z" fill="#2B2B2B"/>
<path d="M51.1024 44.7833V32.2207H73.1229V89.907H58.971V44.7833H51.1024Z" fill="#2C2C2C"/>
<path d="M51.3289 44.9679V32.4053H73.3493V90.0916H59.1975V44.9679H51.3289Z" fill="#2D2D2D"/>
<path d="M51.5553 45.1585V32.5901H73.5758V90.2764H59.4239V45.1585H51.5553Z" fill="#2E2E2E"/>
<path d="M51.7819 45.3431V32.7805H73.8023V90.4669H59.6505V45.3431H51.7819Z" fill="#2F2F2F"/>
<path d="M52.0083 45.5337V32.9653H74.0288V90.6517H59.8769V45.5337H52.0083Z" fill="#303030"/>
<path d="M52.2347 45.7184V33.1558H74.2552V90.8421H60.1033V45.7184H52.2347Z" fill="#313131"/>
<path d="M52.4613 45.9089V33.3406H74.4818V91.0269H60.3299V45.9089H52.4613Z" fill="#323232"/>
<path d="M52.6877 46.0938V33.5312H74.7082V91.2176H60.5563V46.0938H52.6877Z" fill="#333333"/>
<path d="M52.9142 46.2842V33.7158H74.9347V91.4022H60.7828V46.2842H52.9142Z" fill="#343434"/>
<path d="M53.1407 46.4691V33.9065H75.1612V91.5928H61.0093V46.4691H53.1407Z" fill="#353535"/>
<path d="M53.3672 46.6537V34.0911H75.3877V91.7774H61.2358V46.6537H53.3672Z" fill="#363636"/>
<path d="M53.5936 46.8442V34.2759H75.6141V91.9622H61.4622V46.8442H53.5936Z" fill="#373737"/>
<path d="M53.8201 47.0289V34.4663H75.8405V92.1526H61.6887V47.0289H53.8201Z" fill="#383838"/>
<path d="M54.0466 47.2195V34.6511H76.0671V92.3375H61.9152V47.2195H54.0466Z" fill="#393939"/>
<path d="M54.2731 47.4042V34.8416H76.2935V92.5279H62.1417V47.4042H54.2731Z" fill="#3A3A3A"/>
<path d="M54.4995 47.5947V35.0264H76.52V92.7127H62.3681V47.5947H54.4995Z" fill="#3B3B3B"/>
<path d="M54.7261 47.7796V35.217H76.7465V92.9034H62.5947V47.7796H54.7261Z" fill="#3C3C3C"/>
<path d="M54.9525 47.97V35.4016H76.973V93.0879H62.8211V47.97H54.9525Z" fill="#3D3D3D"/>
<path d="M55.179 48.1549V35.5923H77.1994V93.2786H63.0476V48.1549H55.179Z" fill="#3E3E3E"/>
<path d="M55.4054 48.3452V35.7769H77.4259V93.4632H63.274V48.3452H55.4054Z" fill="#3F3F3F"/>
<path d="M55.632 48.5301V35.9675H77.6524V93.6539H63.5006V48.5301H55.632Z" fill="#404040"/>
<path d="M55.8584 48.7147V36.1521H77.8789V93.8384H63.727V48.7147H55.8584Z" fill="#414141"/>
<path d="M56.0848 48.9053V36.3369H78.1053V94.0233H63.9534V48.9053H56.0848Z" fill="#424242"/>
<path d="M56.3114 49.0899V36.5273H78.3319V94.2137H64.18V49.0899H56.3114Z" fill="#434343"/>
<path d="M56.5378 49.2805V36.7122H78.5583V94.3985H64.4064V49.2805H56.5378Z" fill="#444444"/>
<path d="M56.7643 49.4654V36.9028H78.7848V94.5892H64.6329V49.4654H56.7643Z" fill="#454545"/>
<path d="M56.9908 49.6558V37.0874H79.0113V94.7737H64.8653V49.6558H56.9908Z" fill="#464646"/>
<path d="M57.2173 49.8407V37.2781H79.2378V94.9644H65.0859V49.8407H57.2173Z" fill="#474747"/>
<path d="M57.4437 50.031V37.4626H79.4642V95.149H65.3123V50.031H57.4437Z" fill="#484848"/>
<path d="M57.676 50.2159V37.6533H79.6965V95.3397H65.5446V50.2159H57.676Z" fill="#494949"/>
<path d="M57.9025 50.4005V37.8379H79.9229V95.5242H65.7711V50.4005H57.9025Z" fill="#4A4A4A"/>
<path d="M58.129 50.5911V38.0227H80.1495V95.709H65.9976V50.5911H58.129Z" fill="#4B4B4B"/>
<path d="M58.3555 50.7757V38.2131H80.3759V95.8995H66.2241V50.7757H58.3555Z" fill="#4C4C4C"/>
<path d="M58.5819 50.9663V38.3979H80.6024V96.0843H66.4505V50.9663H58.5819Z" fill="#4D4D4D"/>
<path d="M58.8083 51.1512V38.5886H80.8288V96.275H66.677V51.1512H58.8083Z" fill="#4E4E4E"/>
<path d="M59.0349 51.3416V38.7732H81.0554V96.4595H66.9035V51.3416H59.0349Z" fill="#4F4F4F"/>
<path d="M59.2614 51.5265V38.9639H81.2818V96.6502H67.13V51.5265H59.2614Z" fill="#505050"/>
<path d="M59.4878 51.7168V39.1484H81.5083V96.8348H67.3564V51.7168H59.4878Z" fill="#515151"/>
<path d="M59.7144 51.9017V39.3391H81.7348V97.0254H67.583V51.9017H59.7144Z" fill="#525252"/>
<path d="M59.9408 52.0863V39.5237H81.9613V97.21H67.8094V52.0863H59.9408Z" fill="#535353"/>
<path d="M60.1672 52.2769V39.7085H82.1877V97.3948H68.0358V52.2769H60.1672Z" fill="#545454"/>
<path d="M60.3938 52.4615V39.8989H82.4143V97.5853H68.2624V52.4615H60.3938Z" fill="#555555"/>
<path d="M60.6202 52.6521V40.0837H82.6407V97.7701H68.4888V52.6521H60.6202Z" fill="#565656"/>
<path d="M60.8467 52.837V40.2744H82.8672V97.9607H68.7153V52.837H60.8467Z" fill="#575757"/>
<path d="M61.0731 53.0274V40.459H83.0936V98.1453H68.9417V53.0274H61.0731Z" fill="#585858"/>
<path d="M61.2997 53.2123V40.6497H83.3202V98.336H69.1683V53.2123H61.2997Z" fill="#595959"/>
<path d="M61.5261 53.4026V40.8342H83.5466V98.5206H69.3947V53.4026H61.5261Z" fill="#5A5A5A"/>
<path d="M61.7526 53.5875V41.0249H83.773V98.7112H69.6212V53.5875H61.7526Z" fill="#5B5B5B"/>
<path d="M61.9791 53.7778V41.2095H83.9996V98.8958H69.8477V53.7778H61.9791Z" fill="#5C5C5C"/>
<path d="M62.2056 53.9627V41.4001H84.226V99.0865H70.0742V53.9627H62.2056Z" fill="#5D5D5D"/>
<path d="M62.432 54.1473V41.5847H84.4525V99.2711H70.3006V54.1473H62.432Z" fill="#5E5E5E"/>
<path d="M62.6584 54.3379V41.7695H84.6789V99.4559H70.527V54.3379H62.6584Z" fill="#5F5F5F"/>
<path d="M62.885 54.5228V41.9602H84.9055V99.6465H70.7536V54.5228H62.885Z" fill="#606060"/>
<path d="M63.1115 54.7131V42.1448H85.1319V99.8311H70.9801V54.7131H63.1115Z" fill="#616161"/>
<path d="M63.3379 54.898V42.3354H85.3584V100.022H71.2065V54.898H63.3379Z" fill="#626262"/>
<path d="M63.5645 55.0884V42.52H85.5849V100.206H71.4331V55.0884H63.5645Z" fill="#636363"/>
<path d="M63.7909 55.2733V42.7107H85.8114V100.397H71.6595V55.2733H63.7909Z" fill="#646464"/>
<path d="M64.0232 55.4636V42.8953H86.0437V100.582H71.8918V55.4636H64.0232Z" fill="#656565"/>
<path d="M64.2496 55.6485V43.0859H86.2701V100.772H72.1182V55.6485H64.2496Z" fill="#666666"/>
<path d="M64.4761 55.8331V43.2705H86.4965V100.957H72.3447V55.8331H64.4761Z" fill="#676767"/>
<path d="M64.7026 56.0237V43.4553H86.7231V101.142H72.5712V56.0237H64.7026Z" fill="#686868"/>
<path d="M64.9291 56.2086V43.646H86.9495V101.332H72.7977V56.2086H64.9291Z" fill="#696969"/>
<path d="M65.1555 56.3989V43.8306H87.176V101.517H73.0241V56.3989H65.1555Z" fill="#6A6A6A"/>
<path d="M65.3821 56.5838V44.0212H87.4026V101.708H73.2507V56.5838H65.3821Z" fill="#6B6B6B"/>
<path d="M65.6085 56.7742V44.2058H87.629V101.892H73.4771V56.7742H65.6085Z" fill="#6C6C6C"/>
<path d="M65.835 56.9591V44.3965H87.8554V102.083H73.7036V56.9591H65.835Z" fill="#6D6D6D"/>
<path d="M66.0614 57.1494V44.5811H88.0819V102.267H73.93V57.1494H66.0614Z" fill="#6E6E6E"/>
<path d="M66.288 57.3343V44.7717H88.3084V102.458H74.1566V57.3343H66.288Z" fill="#6F6F6F"/>
<path d="M66.5144 57.5189V44.9563H88.5349V102.643H74.383V57.5189H66.5144Z" fill="#707070"/>
<path d="M66.7408 57.7095V45.1411H88.7613V102.827H74.6094V57.7095H66.7408Z" fill="#717171"/>
<path d="M66.9674 57.8944V45.3318H88.9879V103.018H74.836V57.8944H66.9674Z" fill="#727272"/>
<path d="M67.1938 58.0847V45.5164H89.2143V103.203H75.0624V58.079H67.1938V58.0847Z" fill="#737373"/>
<path d="M67.4203 58.2696V45.707H89.4408V103.393H75.2889V58.2696H67.4203Z" fill="#747474"/>
<path d="M67.6467 58.46V45.8916H89.6672V103.578H75.5153V58.4542H67.6467V58.46Z" fill="#757575"/>
<path d="M67.8733 58.6449V46.0823H89.8938V103.769H75.7419V58.6449H67.8733Z" fill="#767676"/>
<path d="M68.0997 58.8352V46.2668H90.1202V103.953H75.9683V58.8294H68.0997V58.8352Z" fill="#777777"/>
<path d="M68.3262 59.0201V46.4575H90.3466V104.144H76.1948V59.0201H68.3262Z" fill="#787878"/>
<path d="M68.5527 59.2105V46.6421H90.5732V104.328H76.4213V59.2047H68.5527V59.2105Z" fill="#797979"/>
<path d="M68.7792 59.3954V46.8328H90.7996V104.519H76.6478V59.3954H68.7792Z" fill="#7A7A7A"/>
<path d="M69.0056 59.5802V47.0176H91.0261V104.704H76.8742V59.5802H69.0056Z" fill="#7B7B7B"/>
<path d="M69.2322 59.7705V47.2021H91.2526V104.888H77.1008V59.7647H69.2322V59.7705Z" fill="#7C7C7C"/>
<path d="M69.4586 59.9554V47.3928H91.4791V105.079H77.3272V59.9554H69.4586Z" fill="#7D7D7D"/>
<path d="M69.6851 60.1458V47.5774H91.7055V105.264H77.5537V60.14H69.6851V60.1458Z" fill="#7E7E7E"/>
<path d="M69.9115 60.3307V47.7681H91.932V105.454H77.7801V60.3307H69.9115Z" fill="#7F7F7F"/>
<path d="M70.1381 60.521V47.9526H92.1585V105.639H78.0067V60.5152H70.1381V60.521Z" fill="#808080"/>
<path d="M70.3645 60.7059V48.1433H92.385V105.83H78.2331V60.7059H70.3645Z" fill="#818181"/>
<path d="M70.5968 60.8963V48.3279H92.6173V106.014H78.4654V60.8905H70.5968V60.8963Z" fill="#828282"/>
<path d="M70.8232 61.0812V48.5186H92.8437V106.205H78.6918V61.0812H70.8232Z" fill="#838383"/>
<path d="M71.0498 61.266V48.7034H93.0703V106.39H78.9184V61.266H71.0498Z" fill="#848484"/>
<path d="M71.2762 61.4563V48.8879H93.2967V106.574H79.1448V61.4505H71.2762V61.4563Z" fill="#858585"/>
<path d="M71.5027 61.6412V49.0786H93.5232V106.765H79.3713V61.6412H71.5027Z" fill="#868686"/>
<path d="M71.7291 61.8316V49.2632H93.7496V106.95H79.5977V61.8316H71.7291Z" fill="#878787"/>
<path d="M71.9557 62.0165V49.4539H93.9762V107.14H79.8243V62.0165H71.9557Z" fill="#888888"/>
<path d="M72.1821 62.2068V49.6384H94.2026V107.325H80.0507V62.201H72.1821V62.2068Z" fill="#898989"/>
<path d="M72.4086 62.3917V49.8291H94.429V107.515H80.2772V62.3917H72.4086Z" fill="#8A8A8A"/>
<path d="M72.6351 62.582V50.0137H94.6556V107.7H80.5037V62.582H72.6351Z" fill="#8B8B8B"/>
<path d="M72.8616 62.7669V50.2043H94.882V107.891H80.7302V62.7669H72.8616Z" fill="#8C8C8C"/>
<path d="M73.088 62.9518V50.3892H95.1085V108.075H80.9566V62.9518H73.088Z" fill="#8D8D8D"/>
<path d="M73.3145 63.1421V50.5737H95.3349V108.26H81.1831V63.1363H73.3145V63.1421Z" fill="#8E8E8E"/>
<path d="M73.541 63.327V50.7644H95.5615V108.451H81.4096V63.327H73.541Z" fill="#8F8F8F"/>
<path d="M73.7675 63.5173V50.949H95.7879V108.635H81.6361V63.5116H73.7675V63.5173Z" fill="#909090"/>
<path d="M73.9939 63.7022V51.1396H96.0144V108.826H81.8625V63.7022H73.9939Z" fill="#919191"/>
<path d="M74.2205 63.8926V51.3242H96.2409V109.011H82.0891V63.8868H74.2205V63.8926Z" fill="#929292"/>
<path d="M74.4469 64.0775V51.5149H96.4674V109.201H82.3155V64.0775H74.4469Z" fill="#939393"/>
<path d="M74.6733 64.2678V51.6995H96.6938V109.386H82.5419V64.2621H74.6733V64.2678Z" fill="#949494"/>
<path d="M74.8998 64.4527V51.8901H96.9203V109.576H82.7684V64.4527H74.8998Z" fill="#959595"/>
<path d="M75.1263 64.6431V52.0747H97.1468V109.761H82.9949V64.6373H75.1263V64.6431Z" fill="#969696"/>
<path d="M75.3528 64.828V52.2654H97.3733V109.952H83.2214V64.828H75.3528Z" fill="#979797"/>
<path d="M75.5792 65.0128V52.4502H97.5997V110.137H83.4478V65.0128H75.5792Z" fill="#989898"/>
<path d="M75.8058 65.2031V52.6348H97.8263V110.321H83.6744V65.1974H75.8058V65.2031Z" fill="#999999"/>
<path d="M76.0322 65.388V52.8254H98.0527V110.512H83.9008V65.388H76.0322Z" fill="#9A9A9A"/>
<path d="M76.2587 65.5784V53.01H98.2791V110.696H84.1273V65.5726H76.2587V65.5784Z" fill="#9B9B9B"/>
<path d="M76.4852 65.7633V53.2007H98.5057V110.887H84.3538V65.7633H76.4852Z" fill="#9C9C9C"/>
<path d="M76.7117 65.9536V53.3853H98.7321V111.072H84.5803V65.9479H76.7117V65.9536Z" fill="#9D9D9D"/>
<path d="M76.9381 66.1385V53.5759H98.9586V111.262H84.8067V66.1385H76.9381Z" fill="#9E9E9E"/>
<path d="M77.1704 66.3291V53.7607H99.1909V111.447H85.039V66.3233H77.1704V66.3291Z" fill="#9F9F9F"/>
<path d="M77.3969 66.5138V53.9512H99.4173V111.638H85.2655V66.5138H77.3969Z" fill="#A0A0A0"/>
<path d="M77.6234 66.6986V54.136H99.6439V111.822H85.492V66.6986H77.6234Z" fill="#A1A1A1"/>
<path d="M77.8499 66.8889V54.3206H99.8703V112.007H85.7185V66.8832H77.8499V66.8889Z" fill="#A2A2A2"/>
<path d="M78.0763 67.0738V54.5112H100.097V112.198H85.9449V67.0738H78.0763Z" fill="#A3A3A3"/>
<path d="M78.3027 67.2642V54.6958H100.323V112.382H86.1713V67.2584H78.3027V67.2642Z" fill="#A4A4A4"/>
<path d="M78.5293 67.4491V54.8865H100.55V112.573H86.3979V67.4491H78.5293Z" fill="#A5A5A5"/>
<path d="M78.7557 67.6394V55.071H100.776V112.757H86.6243V67.6336H78.7557V67.6394Z" fill="#A6A6A6"/>
<path d="M78.9822 67.8243V55.2617H101.003V112.948H86.8508V67.8243H78.9822Z" fill="#A7A7A7"/>
<path d="M79.2087 68.0147V55.4463H101.229V113.133H87.0773V68.0089H79.2087V68.0147Z" fill="#A8A8A8"/>
<path d="M79.4352 68.1996V55.637H101.456V113.323H87.3038V68.1996H79.4352Z" fill="#A9A9A9"/>
<path d="M79.6616 68.3844V55.8218H101.682V113.508H87.5302V68.3844H79.6616Z" fill="#AAAAAA"/>
<path d="M79.8882 68.5747V56.0063H101.909V113.693H87.7568V68.5689H79.8882V68.5747Z" fill="#ABABAB"/>
<path d="M80.1146 68.7596V56.197H102.135V113.883H87.9832V68.7596H80.1146Z" fill="#ACACAC"/>
<path d="M80.3411 68.95V56.3816H102.362V114.068H88.2097V68.9442H80.3411V68.95Z" fill="#ADADAD"/>
<path d="M80.5675 69.1349V56.5723H102.588V114.259H88.4361V69.1349H80.5675Z" fill="#AEAEAE"/>
<path d="M80.7941 69.3252V56.7568H102.815V114.443H88.6627V69.3194H80.7941V69.3252Z" fill="#AFAFAF"/>
<path d="M81.0205 69.5101V56.9475H103.041V114.634H88.8891V69.5101H81.0205Z" fill="#B0B0B0"/>
<path d="M81.2469 69.7005V57.1321H103.267V114.818H89.1156V69.6947H81.2469V69.7005Z" fill="#B1B1B1"/>
<path d="M81.4735 69.8854V57.3228H103.494V115.009H89.3421V69.8854H81.4735Z" fill="#B2B2B2"/>
<path d="M81.7 70.0759V57.5076H103.72V115.194H89.5686V70.0702H81.7V70.0759Z" fill="#B3B3B3"/>
<path d="M81.9264 70.2605V57.6921H103.947V115.378H89.795V70.2605H81.9264Z" fill="#B4B4B4"/>
<path d="M82.153 70.4454V57.8828H104.173V115.569H90.0216V70.4454H82.153Z" fill="#B5B5B5"/>
<path d="M82.3794 70.6358V58.0732H104.4V115.76H90.248V70.6358H82.3794Z" fill="#B6B6B6"/>
<path d="M82.6058 70.8207V58.2581H104.626V115.944H90.4744V70.8207H82.6058Z" fill="#B7B7B7"/>
<path d="M82.8323 71.0111V58.4485H104.853V116.135H90.7067V71.0111H82.8323Z" fill="#B8B8B8"/>
<path d="M83.0588 71.1959V58.6333H105.079V116.32H90.9274V71.1959H83.0588Z" fill="#B9B9B9"/>
<path d="M83.2853 71.3863V58.8237H105.306V116.51H91.1539V71.3863H83.2853Z" fill="#BABABA"/>
<path d="M83.5176 71.5711V59.0085H105.538V116.695H91.3862V71.5711H83.5176Z" fill="#BBBBBB"/>
<path d="M83.744 71.7616V59.199H105.764V116.885H91.6126V71.7616H83.744Z" fill="#BCBCBC"/>
<path d="M83.9705 71.9464V59.3838H105.991V117.07H91.8391V71.9464H83.9705Z" fill="#BDBDBD"/>
<path d="M84.197 72.1312V59.5686H106.217V117.255H92.0656V72.1312H84.197Z" fill="#BEBEBE"/>
<path d="M84.4235 72.3215V59.7532H106.444V117.44H92.2921V72.3158H84.4235V72.3215Z" fill="#BFBFBF"/>
<path d="M84.6499 72.5064V59.9438H106.67V117.63H92.5185V72.5064H84.6499Z" fill="#C0C0C0"/>
<path d="M84.8765 72.6969V60.1343H106.897V117.821H92.7451V72.6969H84.8765Z" fill="#C1C1C1"/>
<path d="M85.1029 72.8817V60.3191H107.123V118.005H92.9715V72.8817H85.1029Z" fill="#C2C2C2"/>
<path d="M85.3293 73.072V60.5037H107.35V118.19H93.1979V73.0663H85.3293V73.072Z" fill="#C3C3C3"/>
<path d="M85.5559 73.2569V60.6943H107.576V118.381H93.4245V73.2569H85.5559Z" fill="#C4C4C4"/>
<path d="M85.7823 73.4474V60.8848H107.803V118.571H93.651V73.4474H85.7823Z" fill="#C5C5C5"/>
<path d="M86.0088 73.6322V61.0696H108.029V118.756H93.8774V73.6322H86.0088Z" fill="#C6C6C6"/>
<path d="M86.2352 73.817V61.2544H108.256V118.941H94.1038V73.817H86.2352Z" fill="#C7C7C7"/>
<path d="M86.4618 74.0074V61.4448H108.482V119.131H94.3304V74.0074H86.4618Z" fill="#C8C8C8"/>
<path d="M86.6882 74.1922V61.6296H108.709V119.316H94.5568V74.1922H86.6882Z" fill="#C9C9C9"/>
<path d="M86.9147 74.3827V61.8201H108.935V119.506H94.7833V74.3827H86.9147Z" fill="#CACACA"/>
<path d="M87.1412 74.5675V62.0049H109.162V119.691H95.0098V74.5675H87.1412Z" fill="#CBCBCB"/>
<path d="M87.3677 74.7579V62.1953H109.388V119.882H95.2363V74.7579H87.3677Z" fill="#CCCCCC"/>
<path d="M87.5941 74.9427V62.3801H109.615V120.066H95.4627V74.9427H87.5941Z" fill="#CDCDCD"/>
<path d="M87.8206 75.1332V62.5706H109.841V120.257H95.6892V75.1332H87.8206Z" fill="#CECECE"/>
<path d="M88.0471 75.318V62.7554H110.068V120.442H95.9157V75.318H88.0471Z" fill="#CFCFCF"/>
<path d="M88.2736 75.5084V62.9458H110.294V120.632H96.1422V75.5084H88.2736Z" fill="#D0D0D0"/>
<path d="M88.5 75.6932V63.1306H110.52V120.817H96.3686V75.6932H88.5Z" fill="#D1D1D1"/>
<path d="M88.7266 75.878V63.3154H110.747V121.002H96.5952V75.878H88.7266Z" fill="#D2D2D2"/>
<path d="M88.953 76.0685V63.5059H110.973V121.192H96.8216V76.0685H88.953Z" fill="#D3D3D3"/>
<path d="M89.1794 76.2533V63.6907H111.2V121.377H97.048V76.2533H89.1794Z" fill="#D4D4D4"/>
<path d="M89.406 76.4437V63.8811H111.426V121.567H97.2746V76.4437H89.406Z" fill="#D5D5D5"/>
<path d="M89.6324 76.6285V64.0659H111.653V121.752H97.501V76.6285H89.6324Z" fill="#D6D6D6"/>
<path d="M89.8589 76.8189V64.2563H111.879V121.943H97.7333V76.8189H89.8589Z" fill="#D7D7D7"/>
<path d="M90.0912 77.0038V64.4412H112.112V122.127H97.9598V77.0038H90.0912Z" fill="#D8D8D8"/>
<path d="M90.3176 77.1942V64.6316H112.338V122.318H98.1862V77.1942H90.3176Z" fill="#D9D9D9"/>
<path d="M90.5442 77.379V64.8164H112.565V122.503H98.4128V77.379H90.5442Z" fill="#DADADA"/>
<path d="M90.7706 77.5638V65.0012H112.791V122.688H98.6392V77.5638H90.7706Z" fill="#DBDBDB"/>
<path d="M90.9971 77.7542V65.1917H113.018V122.878H98.8657V77.7542H90.9971Z" fill="#DCDCDC"/>
<path d="M91.2235 77.9391V65.3765H113.238V123.063H99.0863V77.9391H91.2235Z" fill="#DDDDDD"/>
<path d="M91.4501 78.1295V65.5669H113.471V123.253H99.3187V78.1295H91.4501Z" fill="#DEDEDE"/>
<path d="M91.6765 78.3143V65.7517H113.697V123.438H99.5451V78.3143H91.6765Z" fill="#DFDFDF"/>
<path d="M91.903 78.5047V65.9421H113.923V123.628H99.7716V78.5047H91.903Z" fill="#E0E0E0"/>
<path d="M92.1295 78.6896V66.127H114.15V123.813H99.9981V78.6896H92.1295Z" fill="#E1E1E1"/>
<path d="M92.356 78.88V66.3174H114.376V124.004H100.225V78.88H92.356Z" fill="#E2E2E2"/>
<path d="M92.5824 79.0648V66.5022H114.603V124.189H100.451V79.0648H92.5824Z" fill="#E3E3E3"/>
<path d="M92.809 79.2496V66.687H114.829V124.373H100.678V79.2496H92.809Z" fill="#E4E4E4"/>
<path d="M93.0354 79.44V66.8774H115.056V124.564H100.904V79.44H93.0354Z" fill="#E5E5E5"/>
<path d="M93.2618 79.6248V67.0623H115.282V124.749H101.13V79.6248H93.2618Z" fill="#E6E6E6"/>
<path d="M93.4883 79.8153V67.2527H115.509V124.939H101.357V79.8153H93.4883Z" fill="#E7E7E7"/>
<path d="M93.7148 80.0001V67.4375H115.735V125.124H101.583V80.0001H93.7148Z" fill="#E8E8E8"/>
<path d="M93.9413 80.1905V67.6279H115.962V125.314H101.81V80.1905H93.9413Z" fill="#E9E9E9"/>
<path d="M94.1677 80.3753V67.8127H116.188V125.499H102.036V80.3753H94.1677Z" fill="#EAEAEA"/>
<path d="M94.3943 80.5658V68.0032H116.415V125.69H102.263V80.5658H94.3943Z" fill="#EBEBEB"/>
<path d="M94.6207 80.7506V68.188H116.641V125.874H102.489V80.7506H94.6207Z" fill="#ECECEC"/>
<path d="M94.8472 80.941V68.3784H116.868V126.065H102.716V80.941H94.8472Z" fill="#EDEDED"/>
<path d="M95.0736 81.1258V68.5632H117.094V126.25H102.942V81.1258H95.0736Z" fill="#EEEEEE"/>
<path d="M95.3002 81.3106V68.748H117.321V126.434H103.169V81.3106H95.3002Z" fill="#EFEFEF"/>
<path d="M95.5266 81.501V68.9326H117.547V126.619H103.395V81.4952H95.5266V81.501Z" fill="#F0F0F0"/>
<path d="M95.7531 81.6859V69.1233H117.774V126.81H103.622V81.6859H95.7531Z" fill="#F1F1F1"/>
<path d="M95.9796 81.8763V69.3137H118V127H103.848V81.8763H95.9796Z" fill="#F2F2F2"/>
</g>
</g>
<path d="M47.02 41.5617V29.0396H68.965V86.5354H54.8596V41.5617H47.02Z" fill="#1A1A1A"/>
</svg>
