<svg width="38" height="38" viewBox="0 0 38 38" fill="none" xmlns="http://www.w3.org/2000/svg">
<path d="M38.0001 18.7496C38.0001 18.8985 38.0001 19.0464 38.0001 19.1954C37.9683 19.375 37.9285 19.5547 37.9047 19.7364C37.7447 20.9455 37.6931 22.1804 37.4129 23.3618C35.4289 31.7174 28.0334 37.6499 19.7238 37.908C19.543 37.9139 19.3642 37.9685 19.1844 38.0013C19.0353 38.0013 18.8873 38.0013 18.7383 38.0013C18.5833 37.9705 18.4293 37.9258 18.2723 37.91C17.4736 37.8285 16.6679 37.7958 15.877 37.6697C11.8325 37.0225 8.35234 35.2257 5.49904 32.3101C1.6741 28.4008 -0.172798 23.6884 0.0129845 18.1987C0.0706069 16.4932 0.36766 14.8344 0.876327 13.2113C3.66803 4.29972 12.8598 -1.32201 22.0645 0.269309C27.3886 1.18955 31.5881 3.90958 34.653 8.33906C36.7006 11.2973 37.7845 14.6011 37.9067 18.2086C37.9126 18.3893 37.9683 18.569 38.0001 18.7496ZM15.8919 20.5335C15.8303 20.5345 15.7687 20.5355 15.7062 20.5365C15.6346 20.4194 15.583 20.2824 15.4886 20.1871C14.3461 19.0355 13.1976 17.8889 12.0491 16.7434C11.4689 16.1636 11.1301 16.1666 10.543 16.7533C9.73627 17.5584 8.92956 18.3625 8.12483 19.1705C7.61616 19.6818 7.61616 20.059 8.12483 20.5703C10.4317 22.8872 12.7396 25.2042 15.0485 27.5202C15.6197 28.094 15.9486 28.093 16.5218 27.5212C20.9389 23.1096 25.3559 18.698 29.771 14.2854C30.3105 13.7464 30.3144 13.4029 29.7809 12.8658C28.9871 12.0657 28.1884 11.2705 27.3896 10.4744C26.7637 9.85096 26.4398 9.85394 25.805 10.4893C22.5732 13.7205 19.3403 16.9518 16.1115 20.1871C16.0171 20.2804 15.9645 20.4164 15.8919 20.5335Z" fill="#DEBB00"/>
<path d="M15.8919 20.5337C15.9644 20.4165 16.0171 20.2805 16.1115 20.1862C19.3403 16.951 22.5731 13.7207 25.8049 10.4884C26.4398 9.85407 26.7646 9.8501 27.3896 10.4735C28.1873 11.2697 28.9861 12.0648 29.7809 12.865C30.3144 13.402 30.3104 13.7455 29.7709 14.2845C25.3549 18.6971 20.9388 23.1088 16.5218 27.5204C15.9485 28.0932 15.6197 28.0932 15.0484 27.5194C12.7395 25.2034 10.4317 22.8874 8.12479 20.5694C7.61612 20.0581 7.61612 19.6799 8.12479 19.1697C8.92852 18.3626 9.73523 17.5575 10.5429 16.7524C11.1311 16.1657 11.4689 16.1627 12.0491 16.7425C13.1975 17.8891 14.346 19.0347 15.4885 20.1862C15.5829 20.2815 15.6346 20.4185 15.7061 20.5356C15.7687 20.5356 15.8303 20.5346 15.8919 20.5337Z" fill="white"/>
</svg>
